<?xml version="1.0" encoding="UTF-8" standalone="no"?>
<svg
   version="1.1"
   width="1219.1998pt"
   height="309.79233pt"
   viewBox="-69.900015 -201.825 1219.1998 309.79233"
   preserveAspectRatio="none"
   id="svg340"
   sodipodi:docname="Model.svg"
   inkscape:version="1.1.2 (0a00cf5339, 2022-02-04)"
   xmlns:inkscape="http://www.inkscape.org/namespaces/inkscape"
   xmlns:sodipodi="http://sodipodi.sourceforge.net/DTD/sodipodi-0.dtd"
   xmlns="http://www.w3.org/2000/svg"
   xmlns:svg="http://www.w3.org/2000/svg">
  <sodipodi:namedview
     id="namedview342"
     pagecolor="#505050"
     bordercolor="#eeeeee"
     borderopacity="1"
     inkscape:pageshadow="0"
     inkscape:pageopacity="0"
     inkscape:pagecheckerboard="0"
     inkscape:document-units="pt"
     showgrid="false"
     fit-margin-top="0"
     fit-margin-left="0"
     fit-margin-right="0"
     fit-margin-bottom="0"
     inkscape:zoom="0.65571121"
     inkscape:cx="812.09531"
     inkscape:cy="253.16023"
     inkscape:window-width="1920"
     inkscape:window-height="1132"
     inkscape:window-x="1920"
     inkscape:window-y="0"
     inkscape:window-maximized="1"
     inkscape:current-layer="svg340" />
  <defs
     id="defs2" />
  <path
     d="m 99.899981,20.367336 c 10.499999,0 10.499999,0 15.299999,0"
     stroke="#6e6e6e"
     fill="none"
     stroke-width="1"
     stroke-opacity="1"
     id="path4" />
  <path
     d="m 120.89998,20.367316 -5.70001,2.22001 v -4.43999 l 5.70001,2.21998"
     stroke="none"
     fill="#6e6e6e"
     fill-rule="evenodd"
     stroke-width="0"
     fill-opacity="1"
     id="path6" />
  <path
     d="m 120.89998,20.367316 -5.70001,2.22001 v -4.43999 l 5.70001,2.21998"
     stroke="#6e6e6e"
     fill="none"
     stroke-width="1"
     stroke-opacity="1"
     id="path8" />
  <path
     d="m 4.4999848,20.367336 c 10.4999962,0 10.4999962,0 15.2999962,0"
     stroke="#6e6e6e"
     fill="none"
     stroke-width="1"
     stroke-opacity="1"
     id="path10" />
  <path
     d="m 25.499981,20.367316 -5.7,2.22001 v -4.43999 l 5.7,2.21998"
     stroke="none"
     fill="#6e6e6e"
     fill-rule="evenodd"
     stroke-width="0"
     fill-opacity="1"
     id="path12" />
  <path
     d="m 25.499981,20.367316 -5.7,2.22001 v -4.43999 l 5.7,2.21998"
     stroke="#6e6e6e"
     fill="none"
     stroke-width="1"
     stroke-opacity="1"
     id="path14" />
  <path
     d="m 290.69997,-75.482662 c 10.5,0 10.5,0 15.30001,0"
     stroke="#6e6e6e"
     fill="none"
     stroke-width="1"
     stroke-opacity="1"
     id="path16" />
  <path
     d="m 311.69997,-75.48267 -5.70002,2.220001 v -4.439995 l 5.70002,2.219994"
     stroke="none"
     fill="#6e6e6e"
     fill-rule="evenodd"
     stroke-width="0"
     fill-opacity="1"
     id="path18" />
  <path
     d="m 311.69997,-75.48267 -5.70002,2.220001 v -4.439995 l 5.70002,2.219994"
     stroke="#6e6e6e"
     fill="none"
     stroke-width="1"
     stroke-opacity="1"
     id="path20" />
  <path
     d="m 290.69997,20.367336 c 10.5,0 10.5,0 15.30001,0"
     stroke="#6e6e6e"
     fill="none"
     stroke-width="1"
     stroke-opacity="1"
     id="path22" />
  <path
     d="m 311.69997,20.367316 -5.70002,2.22001 v -4.43999 l 5.70002,2.21998"
     stroke="none"
     fill="#6e6e6e"
     fill-rule="evenodd"
     stroke-width="0"
     fill-opacity="1"
     id="path24" />
  <path
     d="m 311.69997,20.367316 -5.70002,2.22001 v -4.43999 l 5.70002,2.21998"
     stroke="#6e6e6e"
     fill="none"
     stroke-width="1"
     stroke-opacity="1"
     id="path26" />
  <path
     d="m 177.97728,0.39625627 c 0,-27.95392027 0,-27.95392027 25.96701,-27.95392027 25.96695,0 25.96695,0 25.96695,-18.525"
     stroke="#6e6e6e"
     fill="none"
     stroke-width="1"
     stroke-opacity="1"
     id="path28" />
  <path
     d="m 229.91121,-51.782666 2.22,5.700002 h -4.43997 l 2.21997,-5.700002"
     stroke="none"
     fill="#6e6e6e"
     fill-rule="evenodd"
     stroke-width="0"
     fill-opacity="1"
     id="path30" />
  <path
     d="m 229.91121,-51.782666 2.22,5.700002 h -4.43997 l 2.21997,-5.700002"
     stroke="#6e6e6e"
     fill="none"
     stroke-width="1"
     stroke-opacity="1"
     id="path32" />
  <path
     d="m 191.01649,-96.408737 c 14.78348,0 14.78348,0 14.78348,4.233791 0,4.233787 0,4.233787 4.80002,4.233787"
     stroke="#6e6e6e"
     fill="none"
     stroke-width="1"
     stroke-opacity="1"
     id="path34" />
  <path
     d="m 216.29997,-87.941159 -5.70001,2.220002 v -4.439999 l 5.70001,2.219997"
     stroke="none"
     fill="#6e6e6e"
     fill-rule="evenodd"
     stroke-width="0"
     fill-opacity="1"
     id="path36" />
  <path
     d="m 216.29997,-87.941159 -5.70001,2.220002 v -4.439999 l 5.70001,2.219997"
     stroke="#6e6e6e"
     fill="none"
     stroke-width="1"
     stroke-opacity="1"
     id="path38" />
  <path
     d="m 195.29997,20.367336 c 10.5,0 10.5,0 15.30002,0"
     stroke="#6e6e6e"
     fill="none"
     stroke-width="1"
     stroke-opacity="1"
     id="path40" />
  <path
     d="m 216.29997,20.367316 -5.70001,2.22001 v -4.43999 l 5.70001,2.21998"
     stroke="none"
     fill="#6e6e6e"
     fill-rule="evenodd"
     stroke-width="0"
     fill-opacity="1"
     id="path42" />
  <path
     d="m 216.29997,20.367316 -5.70001,2.22001 v -4.43999 l 5.70001,2.21998"
     stroke="#6e6e6e"
     fill="none"
     stroke-width="1"
     stroke-opacity="1"
     id="path44" />
  <path
     d="m 183.68449,67.130516 c 0,-14.81318 0,-14.81318 18.24756,-14.81318 18.24753,0 18.24753,0 18.24753,-3.93161"
     stroke="#6e6e6e"
     fill="none"
     stroke-width="1"
     stroke-opacity="1"
     id="path46" />
  <path
     d="m 220.17955,42.685726 2.22,5.7 h -4.43997 l 2.21997,-5.7"
     stroke="none"
     fill="#6e6e6e"
     fill-rule="evenodd"
     stroke-width="0"
     fill-opacity="1"
     id="path48" />
  <path
     d="m 220.17955,42.685726 2.22,5.7 h -4.43997 l 2.21997,-5.7"
     stroke="#6e6e6e"
     fill="none"
     stroke-width="1"
     stroke-opacity="1"
     id="path50" />
  <path
     d="m 672.29994,20.367336 c 10.5,0 10.5,0 15.30005,0"
     stroke="#6e6e6e"
     fill="none"
     stroke-width="1"
     stroke-opacity="1"
     id="path52" />
  <path
     d="m 693.29994,20.367316 -5.70001,2.22001 v -4.43999 l 5.70001,2.21998"
     stroke="none"
     fill="#6e6e6e"
     fill-rule="evenodd"
     stroke-width="0"
     fill-opacity="1"
     id="path54" />
  <path
     d="m 693.29994,20.367316 -5.70001,2.22001 v -4.43999 l 5.70001,2.21998"
     stroke="#6e6e6e"
     fill="none"
     stroke-width="1"
     stroke-opacity="1"
     id="path56" />
  <path
     d="m 672.29994,-75.482662 c 10.5,0 10.5,0 15.30005,0"
     stroke="#6e6e6e"
     fill="none"
     stroke-width="1"
     stroke-opacity="1"
     id="path58" />
  <path
     d="m 693.29994,-75.48267 -5.70001,2.220001 v -4.439995 l 5.70001,2.219994"
     stroke="none"
     fill="#6e6e6e"
     fill-rule="evenodd"
     stroke-width="0"
     fill-opacity="1"
     id="path60" />
  <path
     d="m 693.29994,-75.48267 -5.70001,2.220001 v -4.439995 l 5.70001,2.219994"
     stroke="#6e6e6e"
     fill="none"
     stroke-width="1"
     stroke-opacity="1"
     id="path62" />
  <path
     d="m 863.09999,-27.557664 c 10.5,0 10.5,0 15.29999,0"
     stroke="#6e6e6e"
     fill="none"
     stroke-width="1"
     stroke-opacity="1"
     id="path64" />
  <path
     d="m 884.09999,-27.557664 -5.70001,2.22 v -4.44 l 5.70001,2.22"
     stroke="none"
     fill="#6e6e6e"
     fill-rule="evenodd"
     stroke-width="0"
     fill-opacity="1"
     id="path66" />
  <path
     d="m 884.09999,-27.557664 -5.70001,2.22 v -4.44 l 5.70001,2.22"
     stroke="#6e6e6e"
     fill="none"
     stroke-width="1"
     stroke-opacity="1"
     id="path68" />
  <path
     d="m 759.58516,5.7561463 c 18.61474,0 18.61474,0 18.61474,-7.47051 0,-7.47049 0,-7.47049 5.42688,-7.47049"
     stroke="#6e6e6e"
     fill="none"
     stroke-width="1"
     stroke-opacity="1"
     id="path70" />
  <path
     d="m 789.32686,-9.1848637 -5.70001,2.22 v -4.4399903 l 5.70001,2.2199903"
     stroke="none"
     fill="#6e6e6e"
     fill-rule="evenodd"
     stroke-width="0"
     fill-opacity="1"
     id="path72" />
  <path
     d="m 789.32686,-9.1848637 -5.70001,2.22 v -4.4399903 l 5.70001,2.2199903"
     stroke="#6e6e6e"
     fill="none"
     stroke-width="1"
     stroke-opacity="1"
     id="path74" />
  <path
     d="m 1053.8999,-27.557664 c 10.5,0 10.5,0 15.3,0"
     stroke="#6e6e6e"
     fill="none"
     stroke-width="1"
     stroke-opacity="1"
     id="path76" />
  <path
     d="m 1074.8999,-27.557664 -5.7,2.22 v -4.44 l 5.7,2.22"
     stroke="none"
     fill="#6e6e6e"
     fill-rule="evenodd"
     stroke-width="0"
     fill-opacity="1"
     id="path78" />
  <path
     d="m 1074.8999,-27.557664 -5.7,2.22 v -4.44 l 5.7,2.22"
     stroke="#6e6e6e"
     fill="none"
     stroke-width="1"
     stroke-opacity="1"
     id="path80" />
  <path
     d="m 958.49989,-27.557664 c 10.5,0 10.5,0 15.3001,0"
     stroke="#6e6e6e"
     fill="none"
     stroke-width="1"
     stroke-opacity="1"
     id="path82" />
  <path
     d="m 979.49999,-27.557664 -5.7,2.22 v -4.44 l 5.7,2.22"
     stroke="none"
     fill="#6e6e6e"
     fill-rule="evenodd"
     stroke-width="0"
     fill-opacity="1"
     id="path84" />
  <path
     d="m 979.49999,-27.557664 -5.7,2.22 v -4.44 l 5.7,2.22"
     stroke="#6e6e6e"
     fill="none"
     stroke-width="1"
     stroke-opacity="1"
     id="path86" />
  <path
     d="m 863.09999,84.267346 c 10.5,0 10.5,0 15.29999,0"
     stroke="#6e6e6e"
     fill="none"
     stroke-width="1"
     stroke-opacity="1"
     id="path88" />
  <path
     d="m 884.09999,84.267326 -5.70001,2.22001 v -4.43999 l 5.70001,2.21998"
     stroke="none"
     fill="#6e6e6e"
     fill-rule="evenodd"
     stroke-width="0"
     fill-opacity="1"
     id="path90" />
  <path
     d="m 884.09999,84.267326 -5.70001,2.22001 v -4.43999 l 5.70001,2.21998"
     stroke="#6e6e6e"
     fill="none"
     stroke-width="1"
     stroke-opacity="1"
     id="path92" />
  <path
     d="m 938.98449,63.537986 c 0,-17.14389 0,-17.14389 28.7482,-17.14389 28.7483,0 28.7483,0 28.7483,-44.5517697"
     stroke="#6e6e6e"
     fill="none"
     stroke-width="1"
     stroke-opacity="1"
     id="path94" />
  <path
     d="m 996.48099,-3.8576737 2.2201,5.7 h -4.4401 l 2.22,-5.7"
     stroke="none"
     fill="#6e6e6e"
     fill-rule="evenodd"
     stroke-width="0"
     fill-opacity="1"
     id="path96" />
  <path
     d="m 996.48099,-3.8576737 2.2201,5.7 h -4.4401 l 2.22,-5.7"
     stroke="#6e6e6e"
     fill="none"
     stroke-width="1"
     stroke-opacity="1"
     id="path98" />
  <path
     d="m 759.58516,-60.871479 c 18.61474,0 18.61474,0 18.61474,7.470497 0,7.470508 0,7.470508 5.42688,7.470508"
     stroke="#6e6e6e"
     fill="none"
     stroke-width="1"
     stroke-opacity="1"
     id="path100" />
  <path
     d="m 789.32686,-45.930484 -5.70001,2.22 v -4.439995 l 5.70001,2.219995"
     stroke="none"
     fill="#6e6e6e"
     fill-rule="evenodd"
     stroke-width="0"
     fill-opacity="1"
     id="path102" />
  <path
     d="m 789.32686,-45.930484 -5.70001,2.22 v -4.439995 l 5.70001,2.219995"
     stroke="#6e6e6e"
     fill="none"
     stroke-width="1"
     stroke-opacity="1"
     id="path104" />
  <path
     d="m 767.6999,84.267346 c 10.5,0 10.5,0 15.30005,0"
     stroke="#6e6e6e"
     fill="none"
     stroke-width="1"
     stroke-opacity="1"
     id="path106" />
  <path
     d="m 788.69997,84.267326 -5.70002,2.22001 v -4.43999 l 5.70002,2.21998"
     stroke="none"
     fill="#6e6e6e"
     fill-rule="evenodd"
     stroke-width="0"
     fill-opacity="1"
     id="path108" />
  <path
     d="m 788.69997,84.267326 -5.70002,2.22001 v -4.43999 l 5.70002,2.21998"
     stroke="#6e6e6e"
     fill="none"
     stroke-width="1"
     stroke-opacity="1"
     id="path110" />
  <path
     d="m 481.49995,-75.482662 c 10.5,0 10.5,0 15.29999,0"
     stroke="#6e6e6e"
     fill="none"
     stroke-width="1"
     stroke-opacity="1"
     id="path112" />
  <path
     d="m 502.49995,-75.48267 -5.70001,2.220001 v -4.439995 l 5.70001,2.219994"
     stroke="none"
     fill="#6e6e6e"
     fill-rule="evenodd"
     stroke-width="0"
     fill-opacity="1"
     id="path114" />
  <path
     d="m 502.49995,-75.48267 -5.70001,2.220001 v -4.439995 l 5.70001,2.219994"
     stroke="#6e6e6e"
     fill="none"
     stroke-width="1"
     stroke-opacity="1"
     id="path116" />
  <path
     d="m 386.09999,-75.482662 c 10.5,0 10.5,0 15.29996,0"
     stroke="#6e6e6e"
     fill="none"
     stroke-width="1"
     stroke-opacity="1"
     id="path118" />
  <path
     d="m 407.09999,-75.48267 -5.70001,2.220001 v -4.439995 l 5.70001,2.219994"
     stroke="none"
     fill="#6e6e6e"
     fill-rule="evenodd"
     stroke-width="0"
     fill-opacity="1"
     id="path120" />
  <path
     d="m 407.09999,-75.48267 -5.70001,2.220001 v -4.439995 l 5.70001,2.219994"
     stroke="#6e6e6e"
     fill="none"
     stroke-width="1"
     stroke-opacity="1"
     id="path122" />
  <path
     d="m 576.89992,-75.482662 c 10.5,0 10.5,0 15.30005,0"
     stroke="#6e6e6e"
     fill="none"
     stroke-width="1"
     stroke-opacity="1"
     id="path124" />
  <path
     d="m 597.89998,-75.48267 -5.70001,2.220001 v -4.439995 l 5.70001,2.219994"
     stroke="none"
     fill="#6e6e6e"
     fill-rule="evenodd"
     stroke-width="0"
     fill-opacity="1"
     id="path126" />
  <path
     d="m 597.89998,-75.48267 -5.70001,2.220001 v -4.439995 l 5.70001,2.219994"
     stroke="#6e6e6e"
     fill="none"
     stroke-width="1"
     stroke-opacity="1"
     id="path128" />
  <path
     d="m 481.49995,20.367336 c 10.5,0 10.5,0 15.29999,0"
     stroke="#6e6e6e"
     fill="none"
     stroke-width="1"
     stroke-opacity="1"
     id="path130" />
  <path
     d="m 502.49995,20.367316 -5.70001,2.22001 v -4.43999 l 5.70001,2.21998"
     stroke="none"
     fill="#6e6e6e"
     fill-rule="evenodd"
     stroke-width="0"
     fill-opacity="1"
     id="path132" />
  <path
     d="m 502.49995,20.367316 -5.70001,2.22001 v -4.43999 l 5.70001,2.21998"
     stroke="#6e6e6e"
     fill="none"
     stroke-width="1"
     stroke-opacity="1"
     id="path134" />
  <path
     d="m 386.09999,20.367336 c 10.5,0 10.5,0 15.29996,0"
     stroke="#6e6e6e"
     fill="none"
     stroke-width="1"
     stroke-opacity="1"
     id="path136" />
  <path
     d="m 407.09999,20.367316 -5.70001,2.22001 v -4.43999 l 5.70001,2.21998"
     stroke="none"
     fill="#6e6e6e"
     fill-rule="evenodd"
     stroke-width="0"
     fill-opacity="1"
     id="path138" />
  <path
     d="m 407.09999,20.367316 -5.70001,2.22001 v -4.43999 l 5.70001,2.21998"
     stroke="#6e6e6e"
     fill="none"
     stroke-width="1"
     stroke-opacity="1"
     id="path140" />
  <path
     d="m 576.89992,20.367336 c 10.5,0 10.5,0 15.30005,0"
     stroke="#6e6e6e"
     fill="none"
     stroke-width="1"
     stroke-opacity="1"
     id="path142" />
  <path
     d="m 597.89998,20.367316 -5.70001,2.22001 v -4.43999 l 5.70001,2.21998"
     stroke="none"
     fill="#6e6e6e"
     fill-rule="evenodd"
     stroke-width="0"
     fill-opacity="1"
     id="path144" />
  <path
     d="m 597.89998,20.367316 -5.70001,2.22001 v -4.43999 l 5.70001,2.21998"
     stroke="#6e6e6e"
     fill="none"
     stroke-width="1"
     stroke-opacity="1"
     id="path146" />
  <path
     d="m 195.29994,-107.43267 c 0,13.089145 -16.655,23.7 -37.19995,23.700004 -20.545,4e-6 -37.20001,-10.61084 -37.20003,-23.699984 v 0 c -10e-6,-13.08915 16.65499,-23.70001 37.19997,-23.70001 20.54498,-1e-5 37.20001,10.61083 37.20001,23.69999 0,0 0,0 0,0"
     stroke="none"
     fill="#70aecc"
     fill-rule="evenodd"
     stroke-width="0"
     fill-opacity="1"
     id="path148" />
  <text
     x="123.37212"
     y="-108.63512"
     dx="0"
     dy="0"
     font-family="Arial"
     font-size="9px"
     fill="#000000"
     style="text-anchor:start;stroke-width:0.75"
     id="text150">UDOT_Routes_</text>
  <text
     x="142.38013"
     y="-98.285126"
     dx="0"
     dy="0"
     font-family="Arial"
     font-size="9px"
     fill="#000000"
     style="text-anchor:start;stroke-width:0.75"
     id="text152">(ALRS)</text>
  <path
     d="m 195.29994,-107.43267 c 0,13.089145 -16.655,23.7 -37.19995,23.700004 -20.545,4e-6 -37.20001,-10.61084 -37.20003,-23.699984 v 0 c -10e-6,-13.08915 16.65499,-23.70001 37.19997,-23.70001 20.54498,-1e-5 37.20001,10.61083 37.20001,23.69999 0,0 0,0 0,0"
     stroke="none"
     fill="none"
     stroke-width="0.75"
     stroke-opacity="0"
     id="path154" />
  <path
     d="m 195.29994,84.267316 c 0,13.08916 -16.655,23.700014 -37.19995,23.700014 -20.545,0 -37.20001,-10.610844 -37.20003,-23.699984 v 0 c -10e-6,-13.08916 16.65499,-23.70001 37.19997,-23.70001 20.54498,-2e-5 37.20001,10.61082 37.20001,23.69999 0,0 0,0 0,0"
     stroke="none"
     fill="#70aecc"
     fill-rule="evenodd"
     stroke-width="0"
     fill-opacity="1"
     id="path156" />
  <text
     x="122.37212"
     y="88.239876"
     dx="0"
     dy="0"
     font-family="Arial"
     font-size="9px"
     fill="#000000"
     style="text-anchor:start;stroke-width:0.75"
     id="text158">CensusBlocks</text>
  <text
     x="178.14363"
     y="88.239876"
     dx="0"
     dy="0"
     font-family="Arial"
     font-size="9px"
     fill="#000000"
     style="text-anchor:start;stroke-width:0.75"
     id="text160">...</text>
  <path
     d="m 195.29994,84.267316 c 0,13.08916 -16.655,23.700014 -37.19995,23.700014 -20.545,0 -37.20001,-10.610844 -37.20003,-23.699984 v 0 c -10e-6,-13.08916 16.65499,-23.70001 37.19997,-23.70001 20.54498,-2e-5 37.20001,10.61082 37.20001,23.69999 0,0 0,0 0,0"
     stroke="none"
     fill="none"
     stroke-width="0.75"
     stroke-opacity="0"
     id="path162" />
  <path
     d="m 4.4999768,20.367316 c 0,13.08916 -16.6550058,23.70002 -37.1999738,23.70002 -20.544987,0 -37.199999,-10.61084 -37.200016,-23.69998 h -2e-6 c -1.7e-5,-13.0891597 16.654978,-23.7000197 37.199969,-23.7000197 20.544986,-1e-5 37.1999998,10.61083 37.2000228,23.6999997 0,0 0,0 0,0"
     stroke="none"
     fill="#70aecc"
     fill-rule="evenodd"
     stroke-width="0"
     fill-opacity="1"
     id="path164" />
  <text
     x="-53.177868"
     y="24.339876"
     dx="0"
     dy="0"
     font-family="Arial"
     font-size="9px"
     fill="#000000"
     style="text-anchor:start;stroke-width:0.75"
     id="text166">Counties</text>
  <path
     d="m 4.4999768,20.367316 c 0,13.08916 -16.6550058,23.70002 -37.1999738,23.70002 -20.544987,0 -37.199999,-10.61084 -37.200016,-23.69998 h -2e-6 c -1.7e-5,-13.0891597 16.654978,-23.7000197 37.199969,-23.7000197 20.544986,-1e-5 37.1999998,10.61083 37.2000228,23.6999997 0,0 0,0 0,0"
     stroke="none"
     fill="none"
     stroke-width="0.75"
     stroke-opacity="0"
     id="path168" />
  <path
     d="m 34.003921,-3.3326637 h 57.39212 -1e-5 c 4.69657,-1e-5 8.50393,3.80732997 8.50393,8.50392 0,0 0,2e-5 0,2e-5 h 2e-5 V 35.563396 h -2e-5 c 0,4.69659 -3.80732,8.50394 -8.50392,8.50394 v 0 h -57.39212 v 0 c -4.69659,0 -8.50394,-3.80735 -8.50394,-8.50394 v -30.3921197 0 c 0,-4.69659003 3.80733,-8.50394 8.50393,-8.50395"
     stroke="none"
     fill="#f2e279"
     fill-rule="evenodd"
     stroke-width="0"
     fill-opacity="1"
     id="path170" />
  <text
     x="36.969624"
     y="19.164875"
     dx="0"
     dy="0"
     font-family="Arial"
     font-size="9px"
     fill="#000000"
     style="text-anchor:start;stroke-width:0.75"
     id="text172">Select Utah</text>
  <text
     x="45.724625"
     y="29.514875"
     dx="0"
     dy="0"
     font-family="Arial"
     font-size="9px"
     fill="#000000"
     style="text-anchor:start;stroke-width:0.75"
     id="text174">County</text>
  <path
     d="m 34.003921,-3.3326637 h 57.39212 -1e-5 c 4.69657,-1e-5 8.50393,3.80732997 8.50393,8.50392 0,0 0,2e-5 0,2e-5 h 2e-5 V 35.563396 h -2e-5 c 0,4.69659 -3.80732,8.50394 -8.50392,8.50394 v 0 h -57.39212 v 0 c -4.69659,0 -8.50394,-3.80735 -8.50394,-8.50394 v -30.3921197 0 c 0,-4.69659003 3.80733,-8.50394 8.50393,-8.50395"
     stroke="none"
     fill="none"
     stroke-width="0.75"
     stroke-opacity="0"
     id="path176" />
  <path
     d="m 195.29994,20.367316 c 0,13.08916 -16.655,23.70002 -37.19995,23.70002 -20.545,0 -37.20001,-10.61084 -37.20003,-23.69998 v 0 c -10e-6,-13.0891597 16.65499,-23.7000197 37.19997,-23.7000197 20.54498,-1e-5 37.20001,10.61083 37.20001,23.6999997 0,0 0,0 0,0"
     stroke="none"
     fill="#83cc7c"
     fill-rule="evenodd"
     stroke-width="0"
     fill-opacity="1"
     id="path178" />
  <text
     x="130.36963"
     y="24.339876"
     dx="0"
     dy="0"
     font-family="Arial"
     font-size="9px"
     fill="#000000"
     style="text-anchor:start;stroke-width:0.75"
     id="text180">Utah County</text>
  <path
     d="m 195.29994,20.367316 c 0,13.08916 -16.655,23.70002 -37.19995,23.70002 -20.545,0 -37.20001,-10.61084 -37.20003,-23.69998 v 0 c -10e-6,-13.0891597 16.65499,-23.7000197 37.19997,-23.7000197 20.54498,-1e-5 37.20001,10.61083 37.20001,23.6999997 0,0 0,0 0,0"
     stroke="none"
     fill="none"
     stroke-width="0.75"
     stroke-opacity="0"
     id="path182" />
  <path
     d="m 224.80391,-99.182663 h 57.39212 -3e-5 c 4.69659,-8e-6 8.50394,3.807327 8.50394,8.503933 0,0 0,4e-6 0,4e-6 h 3e-5 v 30.392124 l -3e-5,-8e-6 c 0,4.696594 -3.80732,8.503937 -8.50391,8.503944 v 0 h -57.39212 v 0 c -4.6966,0 -8.50394,-3.807342 -8.50394,-8.503936 v -30.392124 l -3e-5,3e-6 c 0,-4.696594 3.80734,-8.50394 8.50394,-8.503944"
     stroke="none"
     fill="#f2e279"
     fill-rule="evenodd"
     stroke-width="0"
     fill-opacity="1"
     id="path184" />
  <text
     x="220.01511"
     y="-76.68512"
     dx="0"
     dy="0"
     font-family="Arial"
     font-size="9px"
     fill="#000000"
     style="text-anchor:start;stroke-width:0.75"
     id="text186">Intersect Routes</text>
  <text
     x="225.01411"
     y="-66.335121"
     dx="0"
     dy="0"
     font-family="Arial"
     font-size="9px"
     fill="#000000"
     style="text-anchor:start;stroke-width:0.75"
     id="text188">and Utah Co.</text>
  <path
     d="m 224.80391,-99.182663 h 57.39212 -3e-5 c 4.69659,-8e-6 8.50394,3.807327 8.50394,8.503933 0,0 0,4e-6 0,4e-6 h 3e-5 v 30.392124 l -3e-5,-8e-6 c 0,4.696594 -3.80732,8.503937 -8.50391,8.503944 v 0 h -57.39212 v 0 c -4.6966,0 -8.50394,-3.807342 -8.50394,-8.503936 v -30.392124 l -3e-5,3e-6 c 0,-4.696594 3.80734,-8.50394 8.50394,-8.503944"
     stroke="none"
     fill="none"
     stroke-width="0.75"
     stroke-opacity="0"
     id="path190" />
  <path
     d="m 386.09993,-75.48267 c 0,13.089142 -16.655,23.699997 -37.19995,23.700004 -20.54502,0 -37.20001,-10.610839 -37.20004,-23.699989 v 8e-6 c 0,-13.08915 16.65499,-23.700009 37.19998,-23.700016 20.54498,-1.2e-5 37.20001,10.610832 37.20001,23.699993 0,0 0,0 0,0"
     stroke="none"
     fill="#83cc7c"
     fill-rule="evenodd"
     stroke-width="0"
     fill-opacity="1"
     id="path192" />
  <text
     x="316.41711"
     y="-76.68512"
     dx="0"
     dy="0"
     font-family="Arial"
     font-size="9px"
     fill="#000000"
     style="text-anchor:start;stroke-width:0.75"
     id="text194">Routes in Utah</text>
  <text
     x="339.17963"
     y="-66.335121"
     dx="0"
     dy="0"
     font-family="Arial"
     font-size="9px"
     fill="#000000"
     style="text-anchor:start;stroke-width:0.75"
     id="text196">Co.</text>
  <path
     d="m 386.09993,-75.48267 c 0,13.089142 -16.655,23.699997 -37.19995,23.700004 -20.54502,0 -37.20001,-10.610839 -37.20004,-23.699989 v 8e-6 c 0,-13.08915 16.65499,-23.700009 37.19998,-23.700016 20.54498,-1.2e-5 37.20001,10.610832 37.20001,23.699993 0,0 0,0 0,0"
     stroke="none"
     fill="none"
     stroke-width="0.75"
     stroke-opacity="0"
     id="path198" />
  <path
     d="m 224.80391,-3.3326637 h 57.39212 -3e-5 c 4.69659,-1e-5 8.50394,3.80732997 8.50394,8.50392 0,0 0,2e-5 0,2e-5 h 3e-5 V 35.563396 h -3e-5 c 0,4.69659 -3.80732,8.50394 -8.50391,8.50394 v 0 h -57.39212 v 0 c -4.6966,0 -8.50394,-3.80735 -8.50394,-8.50394 V 5.1712763 h -3e-5 c 0,-4.69659003 3.80734,-8.50394 8.50394,-8.50395"
     stroke="none"
     fill="#f2e279"
     fill-rule="evenodd"
     stroke-width="0"
     fill-opacity="1"
     id="path200" />
  <text
     x="219.01511"
     y="13.989875"
     dx="0"
     dy="0"
     font-family="Arial"
     font-size="9px"
     fill="#000000"
     style="text-anchor:start;stroke-width:0.75"
     id="text202">Intersect Census</text>
  <text
     x="218.26462"
     y="24.339876"
     dx="0"
     dy="0"
     font-family="Arial"
     font-size="9px"
     fill="#000000"
     style="text-anchor:start;stroke-width:0.75"
     id="text204">Blocks and Utah</text>
  <text
     x="243.77962"
     y="34.689877"
     dx="0"
     dy="0"
     font-family="Arial"
     font-size="9px"
     fill="#000000"
     style="text-anchor:start;stroke-width:0.75"
     id="text206">Co.</text>
  <path
     d="m 224.80391,-3.3326637 h 57.39212 -3e-5 c 4.69659,-1e-5 8.50394,3.80732997 8.50394,8.50392 0,0 0,2e-5 0,2e-5 h 3e-5 V 35.563396 h -3e-5 c 0,4.69659 -3.80732,8.50394 -8.50391,8.50394 v 0 h -57.39212 v 0 c -4.6966,0 -8.50394,-3.80735 -8.50394,-8.50394 V 5.1712763 h -3e-5 c 0,-4.69659003 3.80734,-8.50394 8.50394,-8.50395"
     stroke="none"
     fill="none"
     stroke-width="0.75"
     stroke-opacity="0"
     id="path208" />
  <path
     d="m 386.09993,20.367316 c 0,13.08916 -16.655,23.70002 -37.19995,23.70002 -20.54502,0 -37.20001,-10.61084 -37.20004,-23.69998 v 0 c 0,-13.0891597 16.65499,-23.7000197 37.19998,-23.7000197 20.54498,-1e-5 37.20001,10.61083 37.20001,23.6999997 0,0 0,0 0,0"
     stroke="none"
     fill="#83cc7c"
     fill-rule="evenodd"
     stroke-width="0"
     fill-opacity="1"
     id="path210" />
  <text
     x="311.91711"
     y="19.164875"
     dx="0"
     dy="0"
     font-family="Arial"
     font-size="9px"
     fill="#000000"
     style="text-anchor:start;stroke-width:0.75"
     id="text212">Utah Co. Census</text>
  <text
     x="333.17462"
     y="29.514875"
     dx="0"
     dy="0"
     font-family="Arial"
     font-size="9px"
     fill="#000000"
     style="text-anchor:start;stroke-width:0.75"
     id="text214">Blocks</text>
  <path
     d="m 386.09993,20.367316 c 0,13.08916 -16.655,23.70002 -37.19995,23.70002 -20.54502,0 -37.20001,-10.61084 -37.20004,-23.69998 v 0 c 0,-13.0891597 16.65499,-23.7000197 37.19998,-23.7000197 20.54498,-1e-5 37.20001,10.61083 37.20001,23.6999997 0,0 0,0 0,0"
     stroke="none"
     fill="none"
     stroke-width="0.75"
     stroke-opacity="0"
     id="path216" />
  <path
     d="m 606.40388,-3.3326637 h 57.39215 -6e-5 c 4.6966,-1e-5 8.50397,3.80732997 8.50397,8.50392 0,0 0,2e-5 0,2e-5 v 0 30.3921197 0 c 0,4.69659 -3.80731,8.50394 -8.50391,8.50394 v 0 h -57.39215 v 0 c -4.69659,0 -8.5039,-3.80735 -8.5039,-8.50394 V 5.1712763 h -6e-5 c 0,-4.69659003 3.80737,-8.50394 8.50396,-8.50395"
     stroke="none"
     fill="#f2e279"
     fill-rule="evenodd"
     stroke-width="0"
     fill-opacity="1"
     id="path218" />
  <text
     x="620.12463"
     y="13.989875"
     dx="0"
     dy="0"
     font-family="Arial"
     font-size="9px"
     fill="#000000"
     style="text-anchor:start;stroke-width:0.75"
     id="text220">Select</text>
  <text
     x="608.12213"
     y="24.339876"
     dx="0"
     dy="0"
     font-family="Arial"
     font-size="9px"
     fill="#000000"
     style="text-anchor:start;stroke-width:0.75"
     id="text222">POP_DENS</text>
  <text
     x="613.11414"
     y="34.689877"
     dx="0"
     dy="0"
     font-family="Arial"
     font-size="9px"
     fill="#000000"
     style="text-anchor:start;stroke-width:0.75"
     id="text224">over 5000</text>
  <path
     d="m 606.40388,-3.3326637 h 57.39215 -6e-5 c 4.6966,-1e-5 8.50397,3.80732997 8.50397,8.50392 0,0 0,2e-5 0,2e-5 v 0 30.3921197 0 c 0,4.69659 -3.80731,8.50394 -8.50391,8.50394 v 0 h -57.39215 v 0 c -4.69659,0 -8.5039,-3.80735 -8.5039,-8.50394 V 5.1712763 h -6e-5 c 0,-4.69659003 3.80737,-8.50394 8.50396,-8.50395"
     stroke="none"
     fill="none"
     stroke-width="0.75"
     stroke-opacity="0"
     id="path226" />
  <path
     d="m 767.6999,20.367316 c 0,13.08916 -16.65502,23.70002 -37.19995,23.70002 -20.54504,0 -37.20001,-10.61084 -37.20007,-23.69998 v 0 c 0,-13.0891597 16.65503,-23.7000197 37.20001,-23.7000197 20.54499,-1e-5 37.20001,10.61083 37.20001,23.6999997 0,0 0,0 0,0"
     stroke="none"
     fill="#83cc7c"
     fill-rule="evenodd"
     stroke-width="0"
     fill-opacity="1"
     id="path228" />
  <text
     x="695.76709"
     y="19.164875"
     dx="0"
     dy="0"
     font-family="Arial"
     font-size="9px"
     fill="#000000"
     style="text-anchor:start;stroke-width:0.75"
     id="text230">Utah Co. Dense</text>
  <text
     x="714.7746"
     y="29.514875"
     dx="0"
     dy="0"
     font-family="Arial"
     font-size="9px"
     fill="#000000"
     style="text-anchor:start;stroke-width:0.75"
     id="text232">Blocks</text>
  <path
     d="m 767.6999,20.367316 c 0,13.08916 -16.65502,23.70002 -37.19995,23.70002 -20.54504,0 -37.20001,-10.61084 -37.20007,-23.69998 v 0 c 0,-13.0891597 16.65503,-23.7000197 37.20001,-23.7000197 20.54499,-1e-5 37.20001,10.61083 37.20001,23.6999997 0,0 0,0 0,0"
     stroke="none"
     fill="none"
     stroke-width="0.75"
     stroke-opacity="0"
     id="path234" />
  <path
     d="m 606.40388,-99.182663 h 57.39215 -6e-5 c 4.6966,-8e-6 8.50397,3.807327 8.50397,8.503933 0,0 0,4e-6 0,4e-6 v 0 30.392124 -8e-6 c 0,4.696594 -3.80731,8.503937 -8.50391,8.503944 v 0 h -57.39215 v 0 c -4.69659,0 -8.5039,-3.807342 -8.5039,-8.503936 v -30.392124 l -6e-5,3e-6 c 0,-4.696594 3.80737,-8.50394 8.50396,-8.503944"
     stroke="none"
     fill="#f2e279"
     fill-rule="evenodd"
     stroke-width="0"
     fill-opacity="1"
     id="path236" />
  <text
     x="601.19714"
     y="-76.68512"
     dx="0"
     dy="0"
     font-family="Arial"
     font-size="9px"
     fill="#000000"
     style="text-anchor:start;stroke-width:0.75"
     id="text238">Buffer Roads (2</text>
  <text
     x="625.63513"
     y="-66.335121"
     dx="0"
     dy="0"
     font-family="Arial"
     font-size="9px"
     fill="#000000"
     style="text-anchor:start;stroke-width:0.75"
     id="text240">mi)</text>
  <path
     d="m 606.40388,-99.182663 h 57.39215 -6e-5 c 4.6966,-8e-6 8.50397,3.807327 8.50397,8.503933 0,0 0,4e-6 0,4e-6 v 0 30.392124 -8e-6 c 0,4.696594 -3.80731,8.503937 -8.50391,8.503944 v 0 h -57.39215 v 0 c -4.69659,0 -8.5039,-3.807342 -8.5039,-8.503936 v -30.392124 l -6e-5,3e-6 c 0,-4.696594 3.80737,-8.50394 8.50396,-8.503944"
     stroke="none"
     fill="none"
     stroke-width="0.75"
     stroke-opacity="0"
     id="path242" />
  <path
     d="m 767.6999,-75.48267 c 0,13.089142 -16.65502,23.699997 -37.19995,23.700004 -20.54504,0 -37.20001,-10.610839 -37.20007,-23.699989 v 8e-6 c 0,-13.08915 16.65503,-23.700009 37.20001,-23.700016 20.54499,-1.2e-5 37.20001,10.610832 37.20001,23.699993 0,0 0,0 0,0"
     stroke="none"
     fill="#83cc7c"
     fill-rule="evenodd"
     stroke-width="0"
     fill-opacity="1"
     id="path244" />
  <text
     x="695.76709"
     y="-76.68512"
     dx="0"
     dy="0"
     font-family="Arial"
     font-size="9px"
     fill="#000000"
     style="text-anchor:start;stroke-width:0.75"
     id="text246">Utah Co. Roads</text>
  <text
     x="711.09961"
     y="-66.335121"
     dx="0"
     dy="0"
     font-family="Arial"
     font-size="9px"
     fill="#000000"
     style="text-anchor:start;stroke-width:0.75"
     id="text248">Buffered</text>
  <path
     d="m 767.6999,-75.48267 c 0,13.089142 -16.65502,23.699997 -37.19995,23.700004 -20.54504,0 -37.20001,-10.610839 -37.20007,-23.699989 v 8e-6 c 0,-13.08915 16.65503,-23.700009 37.20001,-23.700016 20.54499,-1.2e-5 37.20001,10.610832 37.20001,23.699993 0,0 0,0 0,0"
     stroke="none"
     fill="none"
     stroke-width="0.75"
     stroke-opacity="0"
     id="path250" />
  <path
     d="m 797.20387,-51.257664 h 57.39215 -6e-5 c 4.6966,-8e-6 8.50397,3.80733 8.50397,8.50393 0,0 0,1e-5 0,1e-5 v 0 30.39212 0 c 0,4.6965903 -3.80731,8.5039303 -8.50391,8.5039303 v 0 h -57.39215 v 0 c -4.69659,0 -8.5039,-3.80734 -8.5039,-8.5039303 v -30.39212 h -7e-5 c 0,-4.6966 3.80738,-8.50394 8.50397,-8.503948"
     stroke="none"
     fill="#f2e279"
     fill-rule="evenodd"
     stroke-width="0"
     fill-opacity="1"
     id="path252" />
  <text
     x="793.6651"
     y="-33.935127"
     dx="0"
     dy="0"
     font-family="Arial"
     font-size="9px"
     fill="#000000"
     style="text-anchor:start;stroke-width:0.75"
     id="text254">Intersect Dense</text>
  <text
     x="789.40961"
     y="-23.585123"
     dx="0"
     dy="0"
     font-family="Arial"
     font-size="9px"
     fill="#000000"
     style="text-anchor:start;stroke-width:0.75"
     id="text256">Blocks and Road</text>
  <text
     x="811.50464"
     y="-13.235124"
     dx="0"
     dy="0"
     font-family="Arial"
     font-size="9px"
     fill="#000000"
     style="text-anchor:start;stroke-width:0.75"
     id="text258">Buffer</text>
  <path
     d="m 797.20387,-51.257664 h 57.39215 -6e-5 c 4.6966,-8e-6 8.50397,3.80733 8.50397,8.50393 0,0 0,1e-5 0,1e-5 v 0 30.39212 0 c 0,4.6965903 -3.80731,8.5039303 -8.50391,8.5039303 v 0 h -57.39215 v 0 c -4.69659,0 -8.5039,-3.80734 -8.5039,-8.5039303 v -30.39212 h -7e-5 c 0,-4.6966 3.80738,-8.50394 8.50397,-8.503948"
     stroke="none"
     fill="none"
     stroke-width="0.75"
     stroke-opacity="0"
     id="path260" />
  <path
     d="m 958.49989,-27.557674 c 0,13.08915 -16.655,23.7000003 -37.1999,23.7000003 -20.54503,0 -37.2,-10.6108403 -37.20006,-23.6999803 v 0 c 0,-13.08915 16.65503,-23.700002 37.20006,-23.70001 20.5449,-1.5e-5 37.1999,10.61083 37.1999,23.7 0,0 0,0 0,0"
     stroke="none"
     fill="#83cc7c"
     fill-rule="evenodd"
     stroke-width="0"
     fill-opacity="1"
     id="path262" />
  <text
     x="886.56714"
     y="-28.760124"
     dx="0"
     dy="0"
     font-family="Arial"
     font-size="9px"
     fill="#000000"
     style="text-anchor:start;stroke-width:0.75"
     id="text264">Utah Co. Dense</text>
  <text
     x="896.82214"
     y="-18.410126"
     dx="0"
     dy="0"
     font-family="Arial"
     font-size="9px"
     fill="#000000"
     style="text-anchor:start;stroke-width:0.75"
     id="text266">Near Road</text>
  <path
     d="m 958.49989,-27.557674 c 0,13.08915 -16.655,23.7000003 -37.1999,23.7000003 -20.54503,0 -37.2,-10.6108403 -37.20006,-23.6999803 v 0 c 0,-13.08915 16.65503,-23.700002 37.20006,-23.70001 20.5449,-1.5e-5 37.1999,10.61083 37.1999,23.7 0,0 0,0 0,0"
     stroke="none"
     fill="none"
     stroke-width="0.75"
     stroke-opacity="0"
     id="path268" />
  <path
     d="m 988.00389,-51.257664 h 57.39211 v 0 c 4.6966,-8e-6 8.5039,3.80733 8.5039,8.50393 0,0 0,1e-5 0,1e-5 v 0 30.39212 0 c 0,4.6965903 -3.8072,8.5039303 -8.5039,8.5039303 v 0 h -57.39211 v 0 c -4.6966,0 -8.5039,-3.80734 -8.5039,-8.5039303 v -30.39212 h -10e-5 c 0,-4.6966 3.8074,-8.50394 8.504,-8.503948"
     stroke="none"
     fill="#f2e279"
     fill-rule="evenodd"
     stroke-width="0"
     fill-opacity="1"
     id="path270" />
  <text
     x="985.4696"
     y="-28.760124"
     dx="0"
     dy="0"
     font-family="Arial"
     font-size="9px"
     fill="#000000"
     style="text-anchor:start;stroke-width:0.75"
     id="text272">Erase Existing</text>
  <text
     x="1002.3046"
     y="-18.410126"
     dx="0"
     dy="0"
     font-family="Arial"
     font-size="9px"
     fill="#000000"
     style="text-anchor:start;stroke-width:0.75"
     id="text274">Buffer</text>
  <path
     d="m 988.00389,-51.257664 h 57.39211 v 0 c 4.6966,-8e-6 8.5039,3.80733 8.5039,8.50393 0,0 0,1e-5 0,1e-5 v 0 30.39212 0 c 0,4.6965903 -3.8072,8.5039303 -8.5039,8.5039303 v 0 h -57.39211 v 0 c -4.6966,0 -8.5039,-3.80734 -8.5039,-8.5039303 v -30.39212 h -10e-5 c 0,-4.6966 3.8074,-8.50394 8.504,-8.503948"
     stroke="none"
     fill="none"
     stroke-width="0.75"
     stroke-opacity="0"
     id="path276" />
  <path
     d="m 1149.2998,-27.557674 c 0,13.08915 -16.655,23.7000003 -37.1999,23.7000003 -20.5451,0 -37.2,-10.6108403 -37.2001,-23.6999803 v 0 c 0,-13.08915 16.655,-23.700002 37.2001,-23.70001 20.5449,-1.5e-5 37.1999,10.61083 37.1999,23.7 0,0 0,0 0,0"
     stroke="none"
     fill="#83cc7c"
     fill-rule="evenodd"
     stroke-width="0"
     fill-opacity="1"
     id="path278" />
  <text
     x="1083.8645"
     y="-28.760124"
     dx="0"
     dy="0"
     font-family="Arial"
     font-size="9px"
     fill="#000000"
     style="text-anchor:start;stroke-width:0.75"
     id="text280">Potential Not</text>
  <text
     x="1082.6221"
     y="-18.410126"
     dx="0"
     dy="0"
     font-family="Arial"
     font-size="9px"
     fill="#000000"
     style="text-anchor:start;stroke-width:0.75"
     id="text282">Near Existing</text>
  <path
     d="m 1149.2998,-27.557674 c 0,13.08915 -16.655,23.7000003 -37.1999,23.7000003 -20.5451,0 -37.2,-10.6108403 -37.2001,-23.6999803 v 0 c 0,-13.08915 16.655,-23.700002 37.2001,-23.70001 20.5449,-1.5e-5 37.1999,10.61083 37.1999,23.7 0,0 0,0 0,0"
     stroke="none"
     fill="none"
     stroke-width="0.75"
     stroke-opacity="0"
     id="path284" />
  <path
     d="m 797.20387,60.567336 h 57.39215 -6e-5 c 4.6966,-2e-5 8.50397,3.80732 8.50397,8.50392 0,0 0,10e-6 0,10e-6 v 0 30.39212 0 c 0,4.696604 -3.80731,8.503944 -8.50391,8.503944 v 0 h -57.39215 v 0 c -4.69659,0 -8.5039,-3.80734 -8.5039,-8.503944 v -30.39212 h -7e-5 c 0,-4.69659 3.80738,-8.50393 8.50397,-8.50395"
     stroke="none"
     fill="#f2e279"
     fill-rule="evenodd"
     stroke-width="0"
     fill-opacity="1"
     id="path286" />
  <text
     x="794.49963"
     y="83.064873"
     dx="0"
     dy="0"
     font-family="Arial"
     font-size="9px"
     fill="#000000"
     style="text-anchor:start;stroke-width:0.75"
     id="text288">Buffer Existing</text>
  <text
     x="791.91913"
     y="93.414879"
     dx="0"
     dy="0"
     font-family="Arial"
     font-size="9px"
     fill="#000000"
     style="text-anchor:start;stroke-width:0.75"
     id="text290">Locations (2 mi)</text>
  <path
     d="m 797.20387,60.567336 h 57.39215 -6e-5 c 4.6966,-2e-5 8.50397,3.80732 8.50397,8.50392 0,0 0,10e-6 0,10e-6 v 0 30.39212 0 c 0,4.696604 -3.80731,8.503944 -8.50391,8.503944 v 0 h -57.39215 v 0 c -4.69659,0 -8.5039,-3.80734 -8.5039,-8.503944 v -30.39212 h -7e-5 c 0,-4.69659 3.80738,-8.50393 8.50397,-8.50395"
     stroke="none"
     fill="none"
     stroke-width="0.75"
     stroke-opacity="0"
     id="path292" />
  <path
     d="m 958.49989,84.267316 c 0,13.08916 -16.655,23.700014 -37.1999,23.700014 -20.54503,0 -37.2,-10.610844 -37.20006,-23.699984 v 0 c 0,-13.08916 16.65503,-23.70001 37.20006,-23.70001 20.5449,-2e-5 37.1999,10.61082 37.1999,23.69999 0,0 0,0 0,0"
     stroke="none"
     fill="#83cc7c"
     fill-rule="evenodd"
     stroke-width="0"
     fill-opacity="1"
     id="path294" />
  <text
     x="889.89966"
     y="88.239876"
     dx="0"
     dy="0"
     font-family="Arial"
     font-size="9px"
     fill="#000000"
     style="text-anchor:start;stroke-width:0.75"
     id="text296">Existing Buffer</text>
  <path
     d="m 958.49989,84.267316 c 0,13.08916 -16.655,23.700014 -37.1999,23.700014 -20.54503,0 -37.2,-10.610844 -37.20006,-23.699984 v 0 c 0,-13.08916 16.65503,-23.70001 37.20006,-23.70001 20.5449,-2e-5 37.1999,10.61082 37.1999,23.69999 0,0 0,0 0,0"
     stroke="none"
     fill="none"
     stroke-width="0.75"
     stroke-opacity="0"
     id="path298" />
  <path
     d="m 767.6999,84.267316 c 0,13.08916 -16.65502,23.700014 -37.19995,23.700014 -20.54504,0 -37.20001,-10.610844 -37.20007,-23.699984 v 0 c 0,-13.08916 16.65503,-23.70001 37.20001,-23.70001 20.54499,-2e-5 37.20001,10.61082 37.20001,23.69999 0,0 0,0 0,0"
     stroke="none"
     fill="#70aecc"
     fill-rule="evenodd"
     stroke-width="0"
     fill-opacity="1"
     id="path300" />
  <text
     x="712.2746"
     y="83.064873"
     dx="0"
     dy="0"
     font-family="Arial"
     font-size="9px"
     fill="#000000"
     style="text-anchor:start;stroke-width:0.75"
     id="text302">Existing</text>
  <text
     x="709.2666"
     y="93.414879"
     dx="0"
     dy="0"
     font-family="Arial"
     font-size="9px"
     fill="#000000"
     style="text-anchor:start;stroke-width:0.75"
     id="text304">Locations</text>
  <path
     d="m 767.6999,84.267316 c 0,13.08916 -16.65502,23.700014 -37.19995,23.700014 -20.54504,0 -37.20001,-10.610844 -37.20007,-23.699984 v 0 c 0,-13.08916 16.65503,-23.70001 37.20001,-23.70001 20.54499,-2e-5 37.20001,10.61082 37.20001,23.69999 0,0 0,0 0,0"
     stroke="none"
     fill="none"
     stroke-width="0.75"
     stroke-opacity="0"
     id="path306" />
  <path
     d="m 415.60393,-99.182663 h 57.39212 -6e-5 c 4.69659,-8e-6 8.50396,3.807327 8.50396,8.503933 0,0 0,4e-6 0,4e-6 v 0 30.392124 -8e-6 c 0,4.696594 -3.80731,8.503937 -8.5039,8.503944 v 0 h -57.39212 v 0 c -4.6966,0 -8.50394,-3.807342 -8.50394,-8.503936 v -30.392124 l -3e-5,3e-6 c 0,-4.696594 3.80734,-8.50394 8.50394,-8.503944"
     stroke="none"
     fill="#f2e279"
     fill-rule="evenodd"
     stroke-width="0"
     fill-opacity="1"
     id="path308" />
  <text
     x="416.81964"
     y="-76.68512"
     dx="0"
     dy="0"
     font-family="Arial"
     font-size="9px"
     fill="#000000"
     style="text-anchor:start;stroke-width:0.75"
     id="text310">Select Major</text>
  <text
     x="428.57465"
     y="-66.335121"
     dx="0"
     dy="0"
     font-family="Arial"
     font-size="9px"
     fill="#000000"
     style="text-anchor:start;stroke-width:0.75"
     id="text312">Roads</text>
  <path
     d="m 415.60393,-99.182663 h 57.39212 -6e-5 c 4.69659,-8e-6 8.50396,3.807327 8.50396,8.503933 0,0 0,4e-6 0,4e-6 v 0 30.392124 -8e-6 c 0,4.696594 -3.80731,8.503937 -8.5039,8.503944 v 0 h -57.39212 v 0 c -4.6966,0 -8.50394,-3.807342 -8.50394,-8.503936 v -30.392124 l -3e-5,3e-6 c 0,-4.696594 3.80734,-8.50394 8.50394,-8.503944"
     stroke="none"
     fill="none"
     stroke-width="0.75"
     stroke-opacity="0"
     id="path314" />
  <path
     d="m 576.89992,-75.48267 c 0,13.089142 -16.65503,23.699997 -37.19995,23.700004 -20.54505,0 -37.20002,-10.610839 -37.20008,-23.699989 v 8e-6 c 0,-13.08915 16.65503,-23.700009 37.20001,-23.700016 20.54499,-1.2e-5 37.20002,10.610832 37.20002,23.699993 0,0 0,0 0,0"
     stroke="none"
     fill="#83cc7c"
     fill-rule="evenodd"
     stroke-width="0"
     fill-opacity="1"
     id="path316" />
  <text
     x="506.72211"
     y="-76.68512"
     dx="0"
     dy="0"
     font-family="Arial"
     font-size="9px"
     fill="#000000"
     style="text-anchor:start;stroke-width:0.75"
     id="text318">Utah Co. Major</text>
  <text
     x="523.97461"
     y="-66.335121"
     dx="0"
     dy="0"
     font-family="Arial"
     font-size="9px"
     fill="#000000"
     style="text-anchor:start;stroke-width:0.75"
     id="text320">Roads</text>
  <path
     d="m 576.89992,-75.48267 c 0,13.089142 -16.65503,23.699997 -37.19995,23.700004 -20.54505,0 -37.20002,-10.610839 -37.20008,-23.699989 v 8e-6 c 0,-13.08915 16.65503,-23.700009 37.20001,-23.700016 20.54499,-1.2e-5 37.20002,10.610832 37.20002,23.699993 0,0 0,0 0,0"
     stroke="none"
     fill="none"
     stroke-width="0.75"
     stroke-opacity="0"
     id="path322" />
  <path
     d="m 415.60393,-3.3326637 h 57.39212 -6e-5 c 4.69659,-1e-5 8.50396,3.80732997 8.50396,8.50392 0,0 0,2e-5 0,2e-5 v 0 30.3921197 0 c 0,4.69659 -3.80731,8.50394 -8.5039,8.50394 v 0 h -57.39212 v 0 c -4.6966,0 -8.50394,-3.80735 -8.50394,-8.50394 V 5.1712763 h -3e-5 c 0,-4.69659003 3.80734,-8.50394 8.50394,-8.50395"
     stroke="none"
     fill="#f2e279"
     fill-rule="evenodd"
     stroke-width="0"
     fill-opacity="1"
     id="path324" />
  <text
     x="411.81714"
     y="24.339876"
     dx="0"
     dy="0"
     font-family="Arial"
     font-size="9px"
     fill="#000000"
     style="text-anchor:start;stroke-width:0.75"
     id="text326">Calculate Field</text>
  <path
     d="m 415.60393,-3.3326637 h 57.39212 -6e-5 c 4.69659,-1e-5 8.50396,3.80732997 8.50396,8.50392 0,0 0,2e-5 0,2e-5 v 0 30.3921197 0 c 0,4.69659 -3.80731,8.50394 -8.5039,8.50394 v 0 h -57.39212 v 0 c -4.6966,0 -8.50394,-3.80735 -8.50394,-8.50394 V 5.1712763 h -3e-5 c 0,-4.69659003 3.80734,-8.50394 8.50394,-8.50395"
     stroke="none"
     fill="none"
     stroke-width="0.75"
     stroke-opacity="0"
     id="path328" />
  <path
     d="m 576.89992,20.367316 c 0,13.08916 -16.65503,23.70002 -37.19995,23.70002 -20.54505,0 -37.20002,-10.61084 -37.20008,-23.69998 v 0 c 0,-13.0891597 16.65503,-23.7000197 37.20001,-23.7000197 20.54499,-1e-5 37.20002,10.61083 37.20002,23.6999997 0,0 0,0 0,0"
     stroke="none"
     fill="#83cc7c"
     fill-rule="evenodd"
     stroke-width="0"
     fill-opacity="1"
     id="path330" />
  <text
     x="502.7171"
     y="13.989875"
     dx="0"
     dy="0"
     font-family="Arial"
     font-size="9px"
     fill="#000000"
     style="text-anchor:start;stroke-width:0.75"
     id="text332">Utah Co. Census</text>
  <text
     x="505.4671"
     y="24.339876"
     dx="0"
     dy="0"
     font-family="Arial"
     font-size="9px"
     fill="#000000"
     style="text-anchor:start;stroke-width:0.75"
     id="text334">Blocks with Pop</text>
  <text
     x="521.97711"
     y="34.689877"
     dx="0"
     dy="0"
     font-family="Arial"
     font-size="9px"
     fill="#000000"
     style="text-anchor:start;stroke-width:0.75"
     id="text336">Density</text>
  <path
     d="m 576.89992,20.367316 c 0,13.08916 -16.65503,23.70002 -37.19995,23.70002 -20.54505,0 -37.20002,-10.61084 -37.20008,-23.69998 v 0 c 0,-13.0891597 16.65503,-23.7000197 37.20001,-23.7000197 20.54499,-1e-5 37.20002,10.61083 37.20002,23.6999997 0,0 0,0 0,0"
     stroke="none"
     fill="none"
     stroke-width="0.75"
     stroke-opacity="0"
     id="path338" />
</svg>
