<?xml version="1.0"?>
<svg xmlns="http://www.w3.org/2000/svg" version="1.1" width="1392pt" height="675.75pt" viewBox="-69.9000148773193 -201.824998855591 1392 675.75" preserveAspectRatio="none" xmlns:xlink="http://www.w3.org/1999/xlink">
  <defs>
  </defs>
  <path d="M186.299987792969,168 C196.799987792969,168 196.799987792969,168 201.599990844727,168 " stroke="#6E6E6E" fill="none" stroke-width="1" stroke-opacity="1" />
  <path d="M207.299987792969,167.999984741211 L201.599975585938,170.219985961914 L201.599975585938,165.779998779297 L207.299987792969,167.999984741211 " stroke="none" fill="#6E6E6E" fill-rule="evenodd" stroke-width="0" fill-opacity="1" />
  <path d="M207.299987792969,167.999984741211 L201.599975585938,170.219985961914 L201.599975585938,165.779998779297 L207.299987792969,167.999984741211 " stroke="#6E6E6E" fill="none" stroke-width="1" stroke-opacity="1" />
  <path d="M90.8999938964844,168 C101.399993896484,168 101.399993896484,168 106.199989318848,168 " stroke="#6E6E6E" fill="none" stroke-width="1" stroke-opacity="1" />
  <path d="M111.899993896484,167.999984741211 L106.199989318848,170.219985961914 L106.199989318848,165.779998779297 L111.899993896484,167.999984741211 " stroke="none" fill="#6E6E6E" fill-rule="evenodd" stroke-width="0" fill-opacity="1" />
  <path d="M111.899993896484,167.999984741211 L106.199989318848,170.219985961914 L106.199989318848,165.779998779297 L111.899993896484,167.999984741211 " stroke="#6E6E6E" fill="none" stroke-width="1" stroke-opacity="1" />
  <path d="M377.099975585938,72.1500015258789 C387.599975585938,72.1500015258789 387.599975585938,72.1500015258789 392.399993896484,72.1500015258789 " stroke="#6E6E6E" fill="none" stroke-width="1" stroke-opacity="1" />
  <path d="M398.099975585938,72.1499938964844 L392.399963378906,74.3699951171875 L392.399963378906,69.9300003051758 L398.099975585938,72.1499938964844 " stroke="none" fill="#6E6E6E" fill-rule="evenodd" stroke-width="0" fill-opacity="1" />
  <path d="M398.099975585938,72.1499938964844 L392.399963378906,74.3699951171875 L392.399963378906,69.9300003051758 L398.099975585938,72.1499938964844 " stroke="#6E6E6E" fill="none" stroke-width="1" stroke-opacity="1" />
  <path d="M377.099975585938,168 C387.599975585938,168 387.599975585938,168 392.399993896484,168 " stroke="#6E6E6E" fill="none" stroke-width="1" stroke-opacity="1" />
  <path d="M398.099975585938,167.999984741211 L392.399963378906,170.219985961914 L392.399963378906,165.779998779297 L398.099975585938,167.999984741211 " stroke="none" fill="#6E6E6E" fill-rule="evenodd" stroke-width="0" fill-opacity="1" />
  <path d="M398.099975585938,167.999984741211 L392.399963378906,170.219985961914 L392.399963378906,165.779998779297 L398.099975585938,167.999984741211 " stroke="#6E6E6E" fill="none" stroke-width="1" stroke-opacity="1" />
  <path d="M264.377288818359,148.028915405273 C264.377288818359,120.075004577637 264.377288818359,120.075004577637 290.344299316406,120.075004577637 C316.311248779297,120.075004577637 316.311248779297,120.075004577637 316.311248779297,101.549995422363 " stroke="#6E6E6E" fill="none" stroke-width="1" stroke-opacity="1" />
  <path d="M316.311218261719,95.8499984741211 L318.531219482422,101.549995422363 L314.091247558594,101.549995422363 L316.311218261719,95.8499984741211 " stroke="none" fill="#6E6E6E" fill-rule="evenodd" stroke-width="0" fill-opacity="1" />
  <path d="M316.311218261719,95.8499984741211 L318.531219482422,101.549995422363 L314.091247558594,101.549995422363 L316.311218261719,95.8499984741211 " stroke="#6E6E6E" fill="none" stroke-width="1" stroke-opacity="1" />
  <path d="M277.41650390625,51.2239265441895 C292.199981689453,51.2239265441895 292.199981689453,51.2239265441895 292.199981689453,55.4577178955078 C292.199981689453,59.6915054321289 292.199981689453,59.6915054321289 297,59.6915054321289 " stroke="#6E6E6E" fill="none" stroke-width="1" stroke-opacity="1" />
  <path d="M302.699981689453,59.6915054321289 L296.999969482422,61.911506652832 L296.999969482422,57.471508026123 L302.699981689453,59.6915054321289 " stroke="none" fill="#6E6E6E" fill-rule="evenodd" stroke-width="0" fill-opacity="1" />
  <path d="M302.699981689453,59.6915054321289 L296.999969482422,61.911506652832 L296.999969482422,57.471508026123 L302.699981689453,59.6915054321289 " stroke="#6E6E6E" fill="none" stroke-width="1" stroke-opacity="1" />
  <path d="M281.699981689453,168 C292.199981689453,168 292.199981689453,168 297,168 " stroke="#6E6E6E" fill="none" stroke-width="1" stroke-opacity="1" />
  <path d="M302.699981689453,167.999984741211 L296.999969482422,170.219985961914 L296.999969482422,165.779998779297 L302.699981689453,167.999984741211 " stroke="none" fill="#6E6E6E" fill-rule="evenodd" stroke-width="0" fill-opacity="1" />
  <path d="M302.699981689453,167.999984741211 L296.999969482422,170.219985961914 L296.999969482422,165.779998779297 L302.699981689453,167.999984741211 " stroke="#6E6E6E" fill="none" stroke-width="1" stroke-opacity="1" />
  <path d="M270.084503173828,214.76318359375 C270.084503173828,199.949996948242 270.084503173828,199.949996948242 288.332061767578,199.949996948242 C306.57958984375,199.949996948242 306.57958984375,199.949996948242 306.57958984375,196.01838684082 " stroke="#6E6E6E" fill="none" stroke-width="1" stroke-opacity="1" />
  <path d="M306.579559326172,190.318389892578 L308.799560546875,196.01838684082 L304.359588623047,196.01838684082 L306.579559326172,190.318389892578 " stroke="none" fill="#6E6E6E" fill-rule="evenodd" stroke-width="0" fill-opacity="1" />
  <path d="M306.579559326172,190.318389892578 L308.799560546875,196.01838684082 L304.359588623047,196.01838684082 L306.579559326172,190.318389892578 " stroke="#6E6E6E" fill="none" stroke-width="1" stroke-opacity="1" />
  <path d="M758.699951171875,168 C769.199951171875,168 769.199951171875,168 774,168 " stroke="#6E6E6E" fill="none" stroke-width="1" stroke-opacity="1" />
  <path d="M779.699951171875,167.999984741211 L773.999938964844,170.219985961914 L773.999938964844,165.779998779297 L779.699951171875,167.999984741211 " stroke="none" fill="#6E6E6E" fill-rule="evenodd" stroke-width="0" fill-opacity="1" />
  <path d="M779.699951171875,167.999984741211 L773.999938964844,170.219985961914 L773.999938964844,165.779998779297 L779.699951171875,167.999984741211 " stroke="#6E6E6E" fill="none" stroke-width="1" stroke-opacity="1" />
  <path d="M758.699951171875,72.1500015258789 C769.199951171875,72.1500015258789 769.199951171875,72.1500015258789 774,72.1500015258789 " stroke="#6E6E6E" fill="none" stroke-width="1" stroke-opacity="1" />
  <path d="M779.699951171875,72.1499938964844 L773.999938964844,74.3699951171875 L773.999938964844,69.9300003051758 L779.699951171875,72.1499938964844 " stroke="none" fill="#6E6E6E" fill-rule="evenodd" stroke-width="0" fill-opacity="1" />
  <path d="M779.699951171875,72.1499938964844 L773.999938964844,74.3699951171875 L773.999938964844,69.9300003051758 L779.699951171875,72.1499938964844 " stroke="#6E6E6E" fill="none" stroke-width="1" stroke-opacity="1" />
  <path d="M949.5,120.075004577637 C960,120.075004577637 960,120.075004577637 964.799987792969,120.075004577637 " stroke="#6E6E6E" fill="none" stroke-width="1" stroke-opacity="1" />
  <path d="M970.5,120.074996948242 L964.799987792969,122.294998168945 L964.799987792969,117.855003356934 L970.5,120.074996948242 " stroke="none" fill="#6E6E6E" fill-rule="evenodd" stroke-width="0" fill-opacity="1" />
  <path d="M970.5,120.074996948242 L964.799987792969,122.294998168945 L964.799987792969,117.855003356934 L970.5,120.074996948242 " stroke="#6E6E6E" fill="none" stroke-width="1" stroke-opacity="1" />
  <path d="M845.985168457031,153.388809204102 C864.599914550781,153.388809204102 864.599914550781,153.388809204102 864.599914550781,145.918304443359 C864.599914550781,138.447814941406 864.599914550781,138.447814941406 870.026794433594,138.447814941406 " stroke="#6E6E6E" fill="none" stroke-width="1" stroke-opacity="1" />
  <path d="M875.726867675781,138.447799682617 L870.02685546875,140.66780090332 L870.02685546875,136.227813720703 L875.726867675781,138.447799682617 " stroke="none" fill="#6E6E6E" fill-rule="evenodd" stroke-width="0" fill-opacity="1" />
  <path d="M875.726867675781,138.447799682617 L870.02685546875,140.66780090332 L870.02685546875,136.227813720703 L875.726867675781,138.447799682617 " stroke="#6E6E6E" fill="none" stroke-width="1" stroke-opacity="1" />
  <path d="M1140.29992675781,120.075004577637 C1150.79992675781,120.075004577637 1150.79992675781,120.075004577637 1155.59985351563,120.075004577637 " stroke="#6E6E6E" fill="none" stroke-width="1" stroke-opacity="1" />
  <path d="M1161.29992675781,120.074996948242 L1155.59985351563,122.294998168945 L1155.59985351563,117.855003356934 L1161.29992675781,120.074996948242 " stroke="none" fill="#6E6E6E" fill-rule="evenodd" stroke-width="0" fill-opacity="1" />
  <path d="M1161.29992675781,120.074996948242 L1155.59985351563,122.294998168945 L1155.59985351563,117.855003356934 L1161.29992675781,120.074996948242 " stroke="#6E6E6E" fill="none" stroke-width="1" stroke-opacity="1" />
  <path d="M1044.89990234375,120.075004577637 C1055.39990234375,120.075004577637 1055.39990234375,120.075004577637 1060.19995117188,120.075004577637 " stroke="#6E6E6E" fill="none" stroke-width="1" stroke-opacity="1" />
  <path d="M1065.90002441406,120.074996948242 L1060.19995117188,122.294998168945 L1060.19995117188,117.855003356934 L1065.90002441406,120.074996948242 " stroke="none" fill="#6E6E6E" fill-rule="evenodd" stroke-width="0" fill-opacity="1" />
  <path d="M1065.90002441406,120.074996948242 L1060.19995117188,122.294998168945 L1060.19995117188,117.855003356934 L1065.90002441406,120.074996948242 " stroke="#6E6E6E" fill="none" stroke-width="1" stroke-opacity="1" />
  <path d="M949.5,231.900009155273 C960,231.900009155273 960,231.900009155273 964.799987792969,231.900009155273 " stroke="#6E6E6E" fill="none" stroke-width="1" stroke-opacity="1" />
  <path d="M970.5,231.899993896484 L964.799987792969,234.119995117188 L964.799987792969,229.68000793457 L970.5,231.899993896484 " stroke="none" fill="#6E6E6E" fill-rule="evenodd" stroke-width="0" fill-opacity="1" />
  <path d="M970.5,231.899993896484 L964.799987792969,234.119995117188 L964.799987792969,229.68000793457 L970.5,231.899993896484 " stroke="#6E6E6E" fill="none" stroke-width="1" stroke-opacity="1" />
  <path d="M1025.38452148438,211.170654296875 C1025.38452148438,194.026763916016 1025.38452148438,194.026763916016 1054.13269042969,194.026763916016 C1082.88098144531,194.026763916016 1082.88098144531,194.026763916016 1082.88098144531,149.474990844727 " stroke="#6E6E6E" fill="none" stroke-width="1" stroke-opacity="1" />
  <path d="M1082.88098144531,143.774993896484 L1085.10107421875,149.474990844727 L1080.66101074219,149.474990844727 L1082.88098144531,143.774993896484 " stroke="none" fill="#6E6E6E" fill-rule="evenodd" stroke-width="0" fill-opacity="1" />
  <path d="M1082.88098144531,143.774993896484 L1085.10107421875,149.474990844727 L1080.66101074219,149.474990844727 L1082.88098144531,143.774993896484 " stroke="#6E6E6E" fill="none" stroke-width="1" stroke-opacity="1" />
  <path d="M845.985168457031,86.7611846923828 C864.599914550781,86.7611846923828 864.599914550781,86.7611846923828 864.599914550781,94.2316818237305 C864.599914550781,101.702186584473 864.599914550781,101.702186584473 870.026794433594,101.702186584473 " stroke="#6E6E6E" fill="none" stroke-width="1" stroke-opacity="1" />
  <path d="M875.726867675781,101.702178955078 L870.02685546875,103.922180175781 L870.02685546875,99.4821853637695 L875.726867675781,101.702178955078 " stroke="none" fill="#6E6E6E" fill-rule="evenodd" stroke-width="0" fill-opacity="1" />
  <path d="M875.726867675781,101.702178955078 L870.02685546875,103.922180175781 L870.02685546875,99.4821853637695 L875.726867675781,101.702178955078 " stroke="#6E6E6E" fill="none" stroke-width="1" stroke-opacity="1" />
  <path d="M854.099914550781,231.900009155273 C864.599914550781,231.900009155273 864.599914550781,231.900009155273 869.399963378906,231.900009155273 " stroke="#6E6E6E" fill="none" stroke-width="1" stroke-opacity="1" />
  <path d="M875.099975585938,231.899993896484 L869.399963378906,234.119995117188 L869.399963378906,229.68000793457 L875.099975585938,231.899993896484 " stroke="none" fill="#6E6E6E" fill-rule="evenodd" stroke-width="0" fill-opacity="1" />
  <path d="M875.099975585938,231.899993896484 L869.399963378906,234.119995117188 L869.399963378906,229.68000793457 L875.099975585938,231.899993896484 " stroke="#6E6E6E" fill="none" stroke-width="1" stroke-opacity="1" />
  <path d="M567.899963378906,72.1500015258789 C578.399963378906,72.1500015258789 578.399963378906,72.1500015258789 583.199951171875,72.1500015258789 " stroke="#6E6E6E" fill="none" stroke-width="1" stroke-opacity="1" />
  <path d="M588.899963378906,72.1499938964844 L583.199951171875,74.3699951171875 L583.199951171875,69.9300003051758 L588.899963378906,72.1499938964844 " stroke="none" fill="#6E6E6E" fill-rule="evenodd" stroke-width="0" fill-opacity="1" />
  <path d="M588.899963378906,72.1499938964844 L583.199951171875,74.3699951171875 L583.199951171875,69.9300003051758 L588.899963378906,72.1499938964844 " stroke="#6E6E6E" fill="none" stroke-width="1" stroke-opacity="1" />
  <path d="M472.5,72.1500015258789 C483,72.1500015258789 483,72.1500015258789 487.799957275391,72.1500015258789 " stroke="#6E6E6E" fill="none" stroke-width="1" stroke-opacity="1" />
  <path d="M493.5,72.1499938964844 L487.799987792969,74.3699951171875 L487.799987792969,69.9300003051758 L493.5,72.1499938964844 " stroke="none" fill="#6E6E6E" fill-rule="evenodd" stroke-width="0" fill-opacity="1" />
  <path d="M493.5,72.1499938964844 L487.799987792969,74.3699951171875 L487.799987792969,69.9300003051758 L493.5,72.1499938964844 " stroke="#6E6E6E" fill="none" stroke-width="1" stroke-opacity="1" />
  <path d="M663.299926757813,72.1500015258789 C673.799926757813,72.1500015258789 673.799926757813,72.1500015258789 678.599975585938,72.1500015258789 " stroke="#6E6E6E" fill="none" stroke-width="1" stroke-opacity="1" />
  <path d="M684.299987792969,72.1499938964844 L678.599975585938,74.3699951171875 L678.599975585938,69.9300003051758 L684.299987792969,72.1499938964844 " stroke="none" fill="#6E6E6E" fill-rule="evenodd" stroke-width="0" fill-opacity="1" />
  <path d="M684.299987792969,72.1499938964844 L678.599975585938,74.3699951171875 L678.599975585938,69.9300003051758 L684.299987792969,72.1499938964844 " stroke="#6E6E6E" fill="none" stroke-width="1" stroke-opacity="1" />
  <path d="M567.899963378906,168 C578.399963378906,168 578.399963378906,168 583.199951171875,168 " stroke="#6E6E6E" fill="none" stroke-width="1" stroke-opacity="1" />
  <path d="M588.899963378906,167.999984741211 L583.199951171875,170.219985961914 L583.199951171875,165.779998779297 L588.899963378906,167.999984741211 " stroke="none" fill="#6E6E6E" fill-rule="evenodd" stroke-width="0" fill-opacity="1" />
  <path d="M588.899963378906,167.999984741211 L583.199951171875,170.219985961914 L583.199951171875,165.779998779297 L588.899963378906,167.999984741211 " stroke="#6E6E6E" fill="none" stroke-width="1" stroke-opacity="1" />
  <path d="M472.5,168 C483,168 483,168 487.799957275391,168 " stroke="#6E6E6E" fill="none" stroke-width="1" stroke-opacity="1" />
  <path d="M493.5,167.999984741211 L487.799987792969,170.219985961914 L487.799987792969,165.779998779297 L493.5,167.999984741211 " stroke="none" fill="#6E6E6E" fill-rule="evenodd" stroke-width="0" fill-opacity="1" />
  <path d="M493.5,167.999984741211 L487.799987792969,170.219985961914 L487.799987792969,165.779998779297 L493.5,167.999984741211 " stroke="#6E6E6E" fill="none" stroke-width="1" stroke-opacity="1" />
  <path d="M663.299926757813,168 C673.799926757813,168 673.799926757813,168 678.599975585938,168 " stroke="#6E6E6E" fill="none" stroke-width="1" stroke-opacity="1" />
  <path d="M684.299987792969,167.999984741211 L678.599975585938,170.219985961914 L678.599975585938,165.779998779297 L684.299987792969,167.999984741211 " stroke="none" fill="#6E6E6E" fill-rule="evenodd" stroke-width="0" fill-opacity="1" />
  <path d="M684.299987792969,167.999984741211 L678.599975585938,170.219985961914 L678.599975585938,165.779998779297 L684.299987792969,167.999984741211 " stroke="#6E6E6E" fill="none" stroke-width="1" stroke-opacity="1" />
  <path d="M281.699951171875,40.1999931335449 C281.699951171875,53.2891387939453 265.044952392578,63.8999938964844 244.5,63.8999977111816 C223.955001831055,63.9000015258789 207.299987792969,53.2891578674316 207.29997253418,40.2000122070313 L207.29997253418,40.2000160217285 C207.299957275391,27.1108684539795 223.954956054688,16.5000076293945 244.499938964844,16.5 C265.044921875,16.4999885559082 281.699951171875,27.1108322143555 281.699951171875,40.1999969482422 C281.699951171875,40.1999969482422 281.699951171875,40.1999969482422 281.699951171875,40.1999969482422 " stroke="none" fill="#70AECC" fill-rule="evenodd" stroke-width="0" fill-opacity="1" />
  <text x="3.29618883132935" y="29.9967193603516" dx="0" dy="0" font-family="Arial" font-size="8.99999973177911pt" fill="#000000" style="text-anchor:start" transform="matrix(0.750000 0.000000 0.000000 0.750000 207.299987792969 16.5)">UDOT_Routes_</text>
  <text x="28.6401901245117" y="43.7967185974121" dx="0" dy="0" font-family="Arial" font-size="8.99999973177911pt" fill="#000000" style="text-anchor:start" transform="matrix(0.750000 0.000000 0.000000 0.750000 207.299987792969 16.5)">(ALRS)</text>
  <path d="M281.699951171875,40.1999931335449 C281.699951171875,53.2891387939453 265.044952392578,63.8999938964844 244.5,63.8999977111816 C223.955001831055,63.9000015258789 207.299987792969,53.2891578674316 207.29997253418,40.2000122070313 L207.29997253418,40.2000160217285 C207.299957275391,27.1108684539795 223.954956054688,16.5000076293945 244.499938964844,16.5 C265.044921875,16.4999885559082 281.699951171875,27.1108322143555 281.699951171875,40.1999969482422 C281.699951171875,40.1999969482422 281.699951171875,40.1999969482422 281.699951171875,40.1999969482422 " stroke="none" fill="none" stroke-width="0.75" stroke-opacity="0" />
  <path d="M281.699951171875,231.899978637695 C281.699951171875,244.989135742188 265.044952392578,255.599990844727 244.5,255.599990844727 C223.955001831055,255.599990844727 207.299987792969,244.989151000977 207.29997253418,231.900009155273 L207.29997253418,231.900009155273 C207.299957275391,218.810852050781 223.954956054688,208.199996948242 244.499938964844,208.199996948242 C265.044921875,208.199981689453 281.699951171875,218.810821533203 281.699951171875,231.899993896484 C281.699951171875,231.899993896484 281.699951171875,231.899993896484 281.699951171875,231.899993896484 " stroke="none" fill="#70AECC" fill-rule="evenodd" stroke-width="0" fill-opacity="1" />
  <text x="1.96285569667816" y="36.8967208862305" dx="0" dy="0" font-family="Arial" font-size="8.99999973177911pt" fill="#000000" style="text-anchor:start" transform="matrix(0.750000 0.000000 0.000000 0.750000 207.299987792969 208.199996948242)">CensusBlocks</text>
  <text x="76.3248596191406" y="36.8967208862305" dx="0" dy="0" font-family="Arial" font-size="8.99999973177911pt" fill="#000000" style="text-anchor:start" transform="matrix(0.750000 0.000000 0.000000 0.750000 207.299987792969 208.199996948242)"> ...</text>
  <path d="M281.699951171875,231.899978637695 C281.699951171875,244.989135742188 265.044952392578,255.599990844727 244.5,255.599990844727 C223.955001831055,255.599990844727 207.299987792969,244.989151000977 207.29997253418,231.900009155273 L207.29997253418,231.900009155273 C207.299957275391,218.810852050781 223.954956054688,208.199996948242 244.499938964844,208.199996948242 C265.044921875,208.199981689453 281.699951171875,218.810821533203 281.699951171875,231.899993896484 C281.699951171875,231.899993896484 281.699951171875,231.899993896484 281.699951171875,231.899993896484 " stroke="none" fill="none" stroke-width="0.75" stroke-opacity="0" />
  <path d="M90.8999862670898,167.999984741211 C90.8999862670898,181.089141845703 74.2449798583984,191.699996948242 53.7000122070313,191.699996948242 C33.1550254821777,191.699996948242 16.5000133514404,181.089157104492 16.4999961853027,168.000015258789 L16.4999942779541,168.000015258789 C16.4999771118164,154.910858154297 33.154972076416,144.300003051758 53.6999626159668,144.300003051758 C74.2449493408203,144.299987792969 90.8999633789063,154.910827636719 90.8999862670898,168 C90.8999862670898,168 90.8999862670898,168 90.8999862670898,168 " stroke="none" fill="#70AECC" fill-rule="evenodd" stroke-width="0" fill-opacity="1" />
  <text x="22.2961902618408" y="36.8967208862305" dx="0" dy="0" font-family="Arial" font-size="8.99999973177911pt" fill="#000000" style="text-anchor:start" transform="matrix(0.750000 0.000000 0.000000 0.750000 16.5 144.300003051758)">Counties</text>
  <path d="M90.8999862670898,167.999984741211 C90.8999862670898,181.089141845703 74.2449798583984,191.699996948242 53.7000122070313,191.699996948242 C33.1550254821777,191.699996948242 16.5000133514404,181.089157104492 16.4999961853027,168.000015258789 L16.4999942779541,168.000015258789 C16.4999771118164,154.910858154297 33.154972076416,144.300003051758 53.6999626159668,144.300003051758 C74.2449493408203,144.299987792969 90.8999633789063,154.910827636719 90.8999862670898,168 C90.8999862670898,168 90.8999862670898,168 90.8999862670898,168 " stroke="none" fill="none" stroke-width="0.75" stroke-opacity="0" />
  <path d="M120.403930664063,144.300003051758 L177.796051025391,144.300003051758 L177.796035766602,144.300003051758 C182.492614746094,144.299987792969 186.29997253418,148.107330322266 186.29997253418,152.803924560547 C186.29997253418,152.803924560547 186.29997253418,152.803939819336 186.29997253418,152.803939819336 L186.299987792969,152.803939819336 L186.299987792969,183.196060180664 L186.29997253418,183.196060180664 C186.29997253418,187.892654418945 182.492645263672,191.699996948242 177.796051025391,191.699996948242 L177.796051025391,191.699996948242 L120.403930664063,191.699996948242 L120.403930664063,191.699996948242 C115.707336425781,191.699996948242 111.899993896484,187.892654418945 111.899993896484,183.196060180664 L111.899993896484,152.803939819336 L111.89998626709,152.803939819336 C111.89998626709,148.107345581055 115.707321166992,144.300003051758 120.403915405273,144.299987792969 " stroke="none" fill="#F2E279" fill-rule="evenodd" stroke-width="0" fill-opacity="1" />
  <text x="15.2928552627563" y="29.9967193603516" dx="0" dy="0" font-family="Arial" font-size="8.99999973177911pt" fill="#000000" style="text-anchor:start" transform="matrix(0.750000 0.000000 0.000000 0.750000 111.899993896484 144.300003051758)">Select Utah </text>
  <text x="26.9661903381348" y="43.7967185974121" dx="0" dy="0" font-family="Arial" font-size="8.99999973177911pt" fill="#000000" style="text-anchor:start" transform="matrix(0.750000 0.000000 0.000000 0.750000 111.899993896484 144.300003051758)">County</text>
  <path d="M120.403930664063,144.300003051758 L177.796051025391,144.300003051758 L177.796035766602,144.300003051758 C182.492614746094,144.299987792969 186.29997253418,148.107330322266 186.29997253418,152.803924560547 C186.29997253418,152.803924560547 186.29997253418,152.803939819336 186.29997253418,152.803939819336 L186.299987792969,152.803939819336 L186.299987792969,183.196060180664 L186.29997253418,183.196060180664 C186.29997253418,187.892654418945 182.492645263672,191.699996948242 177.796051025391,191.699996948242 L177.796051025391,191.699996948242 L120.403930664063,191.699996948242 L120.403930664063,191.699996948242 C115.707336425781,191.699996948242 111.899993896484,187.892654418945 111.899993896484,183.196060180664 L111.899993896484,152.803939819336 L111.89998626709,152.803939819336 C111.89998626709,148.107345581055 115.707321166992,144.300003051758 120.403915405273,144.299987792969 " stroke="none" fill="none" stroke-width="0.75" stroke-opacity="0" />
  <path d="M281.699951171875,167.999984741211 C281.699951171875,181.089141845703 265.044952392578,191.699996948242 244.5,191.699996948242 C223.955001831055,191.699996948242 207.299987792969,181.089157104492 207.29997253418,168.000015258789 L207.29997253418,168.000015258789 C207.299957275391,154.910858154297 223.954956054688,144.300003051758 244.499938964844,144.300003051758 C265.044921875,144.299987792969 281.699951171875,154.910827636719 281.699951171875,168 C281.699951171875,168 281.699951171875,168 281.699951171875,168 " stroke="none" fill="#83CC7C" fill-rule="evenodd" stroke-width="0" fill-opacity="1" />
  <text x="12.6261882781982" y="36.8967208862305" dx="0" dy="0" font-family="Arial" font-size="8.99999973177911pt" fill="#000000" style="text-anchor:start" transform="matrix(0.750000 0.000000 0.000000 0.750000 207.299987792969 144.300003051758)">Utah County</text>
  <path d="M281.699951171875,167.999984741211 C281.699951171875,181.089141845703 265.044952392578,191.699996948242 244.5,191.699996948242 C223.955001831055,191.699996948242 207.299987792969,181.089157104492 207.29997253418,168.000015258789 L207.29997253418,168.000015258789 C207.299957275391,154.910858154297 223.954956054688,144.300003051758 244.499938964844,144.300003051758 C265.044921875,144.299987792969 281.699951171875,154.910827636719 281.699951171875,168 C281.699951171875,168 281.699951171875,168 281.699951171875,168 " stroke="none" fill="none" stroke-width="0.75" stroke-opacity="0" />
  <path d="M311.203918457031,48.4500007629395 L368.596038818359,48.4500007629395 L368.596008300781,48.4500007629395 C373.292602539063,48.4499931335449 377.099945068359,52.2573280334473 377.099945068359,56.9539337158203 C377.099945068359,56.9539337158203 377.099945068359,56.9539375305176 377.099945068359,56.9539375305176 L377.099975585938,56.9539375305176 L377.099975585938,87.346061706543 L377.099945068359,87.3460540771484 C377.099945068359,92.0426483154297 373.292633056641,95.8499908447266 368.596038818359,95.8499984741211 L368.596038818359,95.8499984741211 L311.203918457031,95.8499984741211 L311.203918457031,95.8499984741211 C306.50732421875,95.8499984741211 302.699981689453,92.0426559448242 302.699981689453,87.346061706543 L302.699981689453,56.9539375305176 L302.699951171875,56.9539413452148 C302.699951171875,52.2573471069336 306.507293701172,48.4500007629395 311.203887939453,48.4499969482422 " stroke="none" fill="#F2E279" fill-rule="evenodd" stroke-width="0" fill-opacity="1" />
  <text x="4.95352268218994" y="29.9967193603516" dx="0" dy="0" font-family="Arial" font-size="8.99999973177911pt" fill="#000000" style="text-anchor:start" transform="matrix(0.750000 0.000000 0.000000 0.750000 302.699981689453 48.4500007629395)">Intersect Routes </text>
  <text x="11.6188554763794" y="43.7967185974121" dx="0" dy="0" font-family="Arial" font-size="8.99999973177911pt" fill="#000000" style="text-anchor:start" transform="matrix(0.750000 0.000000 0.000000 0.750000 302.699981689453 48.4500007629395)">and Utah Co.</text>
  <path d="M311.203918457031,48.4500007629395 L368.596038818359,48.4500007629395 L368.596008300781,48.4500007629395 C373.292602539063,48.4499931335449 377.099945068359,52.2573280334473 377.099945068359,56.9539337158203 C377.099945068359,56.9539337158203 377.099945068359,56.9539375305176 377.099945068359,56.9539375305176 L377.099975585938,56.9539375305176 L377.099975585938,87.346061706543 L377.099945068359,87.3460540771484 C377.099945068359,92.0426483154297 373.292633056641,95.8499908447266 368.596038818359,95.8499984741211 L368.596038818359,95.8499984741211 L311.203918457031,95.8499984741211 L311.203918457031,95.8499984741211 C306.50732421875,95.8499984741211 302.699981689453,92.0426559448242 302.699981689453,87.346061706543 L302.699981689453,56.9539375305176 L302.699951171875,56.9539413452148 C302.699951171875,52.2573471069336 306.507293701172,48.4500007629395 311.203887939453,48.4499969482422 " stroke="none" fill="none" stroke-width="0.75" stroke-opacity="0" />
  <path d="M472.499938964844,72.1499938964844 C472.499938964844,85.2391357421875 455.844940185547,95.8499908447266 435.299987792969,95.8499984741211 C414.754974365234,95.8499984741211 398.099975585938,85.2391586303711 398.099945068359,72.1500091552734 L398.099945068359,72.150016784668 C398.099945068359,59.0608673095703 414.754943847656,48.450008392334 435.299926757813,48.4500007629395 C455.844909667969,48.4499893188477 472.499938964844,59.0608329772949 472.499938964844,72.1499938964844 C472.499938964844,72.1499938964844 472.499938964844,72.1499938964844 472.499938964844,72.1499938964844 " stroke="none" fill="#83CC7C" fill-rule="evenodd" stroke-width="0" fill-opacity="1" />
  <text x="6.28952264785767" y="29.9967193603516" dx="0" dy="0" font-family="Arial" font-size="8.99999973177911pt" fill="#000000" style="text-anchor:start" transform="matrix(0.750000 0.000000 0.000000 0.750000 398.099975585938 48.4500007629395)">Routes in Utah </text>
  <text x="36.6395225524902" y="43.7967185974121" dx="0" dy="0" font-family="Arial" font-size="8.99999973177911pt" fill="#000000" style="text-anchor:start" transform="matrix(0.750000 0.000000 0.000000 0.750000 398.099975585938 48.4500007629395)">Co.</text>
  <path d="M472.499938964844,72.1499938964844 C472.499938964844,85.2391357421875 455.844940185547,95.8499908447266 435.299987792969,95.8499984741211 C414.754974365234,95.8499984741211 398.099975585938,85.2391586303711 398.099945068359,72.1500091552734 L398.099945068359,72.150016784668 C398.099945068359,59.0608673095703 414.754943847656,48.450008392334 435.299926757813,48.4500007629395 C455.844909667969,48.4499893188477 472.499938964844,59.0608329772949 472.499938964844,72.1499938964844 C472.499938964844,72.1499938964844 472.499938964844,72.1499938964844 472.499938964844,72.1499938964844 " stroke="none" fill="none" stroke-width="0.75" stroke-opacity="0" />
  <path d="M311.203918457031,144.300003051758 L368.596038818359,144.300003051758 L368.596008300781,144.300003051758 C373.292602539063,144.299987792969 377.099945068359,148.107330322266 377.099945068359,152.803924560547 C377.099945068359,152.803924560547 377.099945068359,152.803939819336 377.099945068359,152.803939819336 L377.099975585938,152.803939819336 L377.099975585938,183.196060180664 L377.099945068359,183.196060180664 C377.099945068359,187.892654418945 373.292633056641,191.699996948242 368.596038818359,191.699996948242 L368.596038818359,191.699996948242 L311.203918457031,191.699996948242 L311.203918457031,191.699996948242 C306.50732421875,191.699996948242 302.699981689453,187.892654418945 302.699981689453,183.196060180664 L302.699981689453,152.803939819336 L302.699951171875,152.803939819336 C302.699951171875,148.107345581055 306.507293701172,144.300003051758 311.203887939453,144.299987792969 " stroke="none" fill="#F2E279" fill-rule="evenodd" stroke-width="0" fill-opacity="1" />
  <text x="3.62018918991089" y="23.0967178344727" dx="0" dy="0" font-family="Arial" font-size="8.99999973177911pt" fill="#000000" style="text-anchor:start" transform="matrix(0.750000 0.000000 0.000000 0.750000 302.699981689453 144.300003051758)">Intersect Census </text>
  <text x="2.61952233314514" y="36.8967208862305" dx="0" dy="0" font-family="Arial" font-size="8.99999973177911pt" fill="#000000" style="text-anchor:start" transform="matrix(0.750000 0.000000 0.000000 0.750000 302.699981689453 144.300003051758)">Blocks and Utah </text>
  <text x="36.6395225524902" y="50.696720123291" dx="0" dy="0" font-family="Arial" font-size="8.99999973177911pt" fill="#000000" style="text-anchor:start" transform="matrix(0.750000 0.000000 0.000000 0.750000 302.699981689453 144.300003051758)">Co.</text>
  <path d="M311.203918457031,144.300003051758 L368.596038818359,144.300003051758 L368.596008300781,144.300003051758 C373.292602539063,144.299987792969 377.099945068359,148.107330322266 377.099945068359,152.803924560547 C377.099945068359,152.803924560547 377.099945068359,152.803939819336 377.099945068359,152.803939819336 L377.099975585938,152.803939819336 L377.099975585938,183.196060180664 L377.099945068359,183.196060180664 C377.099945068359,187.892654418945 373.292633056641,191.699996948242 368.596038818359,191.699996948242 L368.596038818359,191.699996948242 L311.203918457031,191.699996948242 L311.203918457031,191.699996948242 C306.50732421875,191.699996948242 302.699981689453,187.892654418945 302.699981689453,183.196060180664 L302.699981689453,152.803939819336 L302.699951171875,152.803939819336 C302.699951171875,148.107345581055 306.507293701172,144.300003051758 311.203887939453,144.299987792969 " stroke="none" fill="none" stroke-width="0.75" stroke-opacity="0" />
  <path d="M472.499938964844,167.999984741211 C472.499938964844,181.089141845703 455.844940185547,191.699996948242 435.299987792969,191.699996948242 C414.754974365234,191.699996948242 398.099975585938,181.089157104492 398.099945068359,168.000015258789 L398.099945068359,168.000015258789 C398.099945068359,154.910858154297 414.754943847656,144.300003051758 435.299926757813,144.300003051758 C455.844909667969,144.299987792969 472.499938964844,154.910827636719 472.499938964844,168 C472.499938964844,168 472.499938964844,168 472.499938964844,168 " stroke="none" fill="#83CC7C" fill-rule="evenodd" stroke-width="0" fill-opacity="1" />
  <text x="0.28952232003212" y="29.9967193603516" dx="0" dy="0" font-family="Arial" font-size="8.99999973177911pt" fill="#000000" style="text-anchor:start" transform="matrix(0.750000 0.000000 0.000000 0.750000 398.099975585938 144.300003051758)">Utah Co. Census </text>
  <text x="28.6328563690186" y="43.7967185974121" dx="0" dy="0" font-family="Arial" font-size="8.99999973177911pt" fill="#000000" style="text-anchor:start" transform="matrix(0.750000 0.000000 0.000000 0.750000 398.099975585938 144.300003051758)">Blocks</text>
  <path d="M472.499938964844,167.999984741211 C472.499938964844,181.089141845703 455.844940185547,191.699996948242 435.299987792969,191.699996948242 C414.754974365234,191.699996948242 398.099975585938,181.089157104492 398.099945068359,168.000015258789 L398.099945068359,168.000015258789 C398.099945068359,154.910858154297 414.754943847656,144.300003051758 435.299926757813,144.300003051758 C455.844909667969,144.299987792969 472.499938964844,154.910827636719 472.499938964844,168 C472.499938964844,168 472.499938964844,168 472.499938964844,168 " stroke="none" fill="none" stroke-width="0.75" stroke-opacity="0" />
  <path d="M692.803894042969,144.300003051758 L750.196044921875,144.300003051758 L750.195983886719,144.300003051758 C754.892578125,144.299987792969 758.699951171875,148.107330322266 758.699951171875,152.803924560547 C758.699951171875,152.803924560547 758.699951171875,152.803939819336 758.699951171875,152.803939819336 L758.699951171875,152.803939819336 L758.699951171875,183.196060180664 L758.699951171875,183.196060180664 C758.699951171875,187.892654418945 754.892639160156,191.699996948242 750.196044921875,191.699996948242 L750.196044921875,191.699996948242 L692.803894042969,191.699996948242 L692.803894042969,191.699996948242 C688.107299804688,191.699996948242 684.299987792969,187.892654418945 684.299987792969,183.196060180664 L684.299987792969,152.803939819336 L684.299926757813,152.803939819336 C684.299926757813,148.107345581055 688.107299804688,144.300003051758 692.803894042969,144.299987792969 " stroke="none" fill="#F2E279" fill-rule="evenodd" stroke-width="0" fill-opacity="1" />
  <text x="29.6328563690186" y="23.0967178344727" dx="0" dy="0" font-family="Arial" font-size="8.99999973177911pt" fill="#000000" style="text-anchor:start" transform="matrix(0.750000 0.000000 0.000000 0.750000 684.299987792969 144.300003051758)">Select </text>
  <text x="13.6295223236084" y="36.8967208862305" dx="0" dy="0" font-family="Arial" font-size="8.99999973177911pt" fill="#000000" style="text-anchor:start" transform="matrix(0.750000 0.000000 0.000000 0.750000 684.299987792969 144.300003051758)">POP_DENS </text>
  <text x="20.2855224609375" y="50.696720123291" dx="0" dy="0" font-family="Arial" font-size="8.99999973177911pt" fill="#000000" style="text-anchor:start" transform="matrix(0.750000 0.000000 0.000000 0.750000 684.299987792969 144.300003051758)">over 5000</text>
  <path d="M692.803894042969,144.300003051758 L750.196044921875,144.300003051758 L750.195983886719,144.300003051758 C754.892578125,144.299987792969 758.699951171875,148.107330322266 758.699951171875,152.803924560547 C758.699951171875,152.803924560547 758.699951171875,152.803939819336 758.699951171875,152.803939819336 L758.699951171875,152.803939819336 L758.699951171875,183.196060180664 L758.699951171875,183.196060180664 C758.699951171875,187.892654418945 754.892639160156,191.699996948242 750.196044921875,191.699996948242 L750.196044921875,191.699996948242 L692.803894042969,191.699996948242 L692.803894042969,191.699996948242 C688.107299804688,191.699996948242 684.299987792969,187.892654418945 684.299987792969,183.196060180664 L684.299987792969,152.803939819336 L684.299926757813,152.803939819336 C684.299926757813,148.107345581055 688.107299804688,144.300003051758 692.803894042969,144.299987792969 " stroke="none" fill="none" stroke-width="0.75" stroke-opacity="0" />
  <path d="M854.099914550781,167.999984741211 C854.099914550781,181.089141845703 837.444885253906,191.699996948242 816.899963378906,191.699996948242 C796.354919433594,191.699996948242 779.699951171875,181.089157104492 779.699890136719,168.000015258789 L779.699890136719,168.000015258789 C779.699890136719,154.910858154297 796.354919433594,144.300003051758 816.89990234375,144.300003051758 C837.444885253906,144.299987792969 854.099914550781,154.910827636719 854.099914550781,168 C854.099914550781,168 854.099914550781,168 854.099914550781,168 " stroke="none" fill="#83CC7C" fill-rule="evenodd" stroke-width="0" fill-opacity="1" />
  <text x="3.28952217102051" y="29.9967193603516" dx="0" dy="0" font-family="Arial" font-size="8.99999973177911pt" fill="#000000" style="text-anchor:start" transform="matrix(0.750000 0.000000 0.000000 0.750000 779.699951171875 144.300003051758)">Utah Co. Dense </text>
  <text x="28.6328563690186" y="43.7967185974121" dx="0" dy="0" font-family="Arial" font-size="8.99999973177911pt" fill="#000000" style="text-anchor:start" transform="matrix(0.750000 0.000000 0.000000 0.750000 779.699951171875 144.300003051758)">Blocks</text>
  <path d="M854.099914550781,167.999984741211 C854.099914550781,181.089141845703 837.444885253906,191.699996948242 816.899963378906,191.699996948242 C796.354919433594,191.699996948242 779.699951171875,181.089157104492 779.699890136719,168.000015258789 L779.699890136719,168.000015258789 C779.699890136719,154.910858154297 796.354919433594,144.300003051758 816.89990234375,144.300003051758 C837.444885253906,144.299987792969 854.099914550781,154.910827636719 854.099914550781,168 C854.099914550781,168 854.099914550781,168 854.099914550781,168 " stroke="none" fill="none" stroke-width="0.75" stroke-opacity="0" />
  <path d="M692.803894042969,48.4500007629395 L750.196044921875,48.4500007629395 L750.195983886719,48.4500007629395 C754.892578125,48.4499931335449 758.699951171875,52.2573280334473 758.699951171875,56.9539337158203 C758.699951171875,56.9539337158203 758.699951171875,56.9539375305176 758.699951171875,56.9539375305176 L758.699951171875,56.9539375305176 L758.699951171875,87.346061706543 L758.699951171875,87.3460540771484 C758.699951171875,92.0426483154297 754.892639160156,95.8499908447266 750.196044921875,95.8499984741211 L750.196044921875,95.8499984741211 L692.803894042969,95.8499984741211 L692.803894042969,95.8499984741211 C688.107299804688,95.8499984741211 684.299987792969,92.0426559448242 684.299987792969,87.346061706543 L684.299987792969,56.9539375305176 L684.299926757813,56.9539413452148 C684.299926757813,52.2573471069336 688.107299804688,48.4500007629395 692.803894042969,48.4499969482422 " stroke="none" fill="#F2E279" fill-rule="evenodd" stroke-width="0" fill-opacity="1" />
  <text x="4.39618921279907" y="29.9967193603516" dx="0" dy="0" font-family="Arial" font-size="8.99999973177911pt" fill="#000000" style="text-anchor:start" transform="matrix(0.750000 0.000000 0.000000 0.750000 684.299987792969 48.4500007629395)">Buffer Roads (2 </text>
  <text x="36.9801864624023" y="43.7967185974121" dx="0" dy="0" font-family="Arial" font-size="8.99999973177911pt" fill="#000000" style="text-anchor:start" transform="matrix(0.750000 0.000000 0.000000 0.750000 684.299987792969 48.4500007629395)">mi)</text>
  <path d="M692.803894042969,48.4500007629395 L750.196044921875,48.4500007629395 L750.195983886719,48.4500007629395 C754.892578125,48.4499931335449 758.699951171875,52.2573280334473 758.699951171875,56.9539337158203 C758.699951171875,56.9539337158203 758.699951171875,56.9539375305176 758.699951171875,56.9539375305176 L758.699951171875,56.9539375305176 L758.699951171875,87.346061706543 L758.699951171875,87.3460540771484 C758.699951171875,92.0426483154297 754.892639160156,95.8499908447266 750.196044921875,95.8499984741211 L750.196044921875,95.8499984741211 L692.803894042969,95.8499984741211 L692.803894042969,95.8499984741211 C688.107299804688,95.8499984741211 684.299987792969,92.0426559448242 684.299987792969,87.346061706543 L684.299987792969,56.9539375305176 L684.299926757813,56.9539413452148 C684.299926757813,52.2573471069336 688.107299804688,48.4500007629395 692.803894042969,48.4499969482422 " stroke="none" fill="none" stroke-width="0.75" stroke-opacity="0" />
  <path d="M854.099914550781,72.1499938964844 C854.099914550781,85.2391357421875 837.444885253906,95.8499908447266 816.899963378906,95.8499984741211 C796.354919433594,95.8499984741211 779.699951171875,85.2391586303711 779.699890136719,72.1500091552734 L779.699890136719,72.150016784668 C779.699890136719,59.0608673095703 796.354919433594,48.450008392334 816.89990234375,48.4500007629395 C837.444885253906,48.4499893188477 854.099914550781,59.0608329772949 854.099914550781,72.1499938964844 C854.099914550781,72.1499938964844 854.099914550781,72.1499938964844 854.099914550781,72.1499938964844 " stroke="none" fill="#83CC7C" fill-rule="evenodd" stroke-width="0" fill-opacity="1" />
  <text x="3.28952217102051" y="29.9967193603516" dx="0" dy="0" font-family="Arial" font-size="8.99999973177911pt" fill="#000000" style="text-anchor:start" transform="matrix(0.750000 0.000000 0.000000 0.750000 779.699951171875 48.4500007629395)">Utah Co. Roads </text>
  <text x="23.7328567504883" y="43.7967185974121" dx="0" dy="0" font-family="Arial" font-size="8.99999973177911pt" fill="#000000" style="text-anchor:start" transform="matrix(0.750000 0.000000 0.000000 0.750000 779.699951171875 48.4500007629395)">Buffered</text>
  <path d="M854.099914550781,72.1499938964844 C854.099914550781,85.2391357421875 837.444885253906,95.8499908447266 816.899963378906,95.8499984741211 C796.354919433594,95.8499984741211 779.699951171875,85.2391586303711 779.699890136719,72.1500091552734 L779.699890136719,72.150016784668 C779.699890136719,59.0608673095703 796.354919433594,48.450008392334 816.89990234375,48.4500007629395 C837.444885253906,48.4499893188477 854.099914550781,59.0608329772949 854.099914550781,72.1499938964844 C854.099914550781,72.1499938964844 854.099914550781,72.1499938964844 854.099914550781,72.1499938964844 " stroke="none" fill="none" stroke-width="0.75" stroke-opacity="0" />
  <path d="M883.603881835938,96.375 L940.996032714844,96.375 L940.995971679688,96.375 C945.692565917969,96.3749923706055 949.499938964844,100.182327270508 949.499938964844,104.878929138184 C949.499938964844,104.878929138184 949.499938964844,104.878936767578 949.499938964844,104.878936767578 L949.499938964844,104.878936767578 L949.499938964844,135.271057128906 L949.499938964844,135.271057128906 C949.499938964844,139.967651367188 945.692626953125,143.774993896484 940.996032714844,143.774993896484 L940.996032714844,143.774993896484 L883.603881835938,143.774993896484 L883.603881835938,143.774993896484 C878.907287597656,143.774993896484 875.099975585938,139.967651367188 875.099975585938,135.271057128906 L875.099975585938,104.878936767578 L875.099914550781,104.878936767578 C875.099914550781,100.182342529297 878.907287597656,96.375 883.603881835938,96.3749923706055 " stroke="none" fill="#F2E279" fill-rule="evenodd" stroke-width="0" fill-opacity="1" />
  <text x="6.62018918991089" y="23.0967178344727" dx="0" dy="0" font-family="Arial" font-size="8.99999973177911pt" fill="#000000" style="text-anchor:start" transform="matrix(0.750000 0.000000 0.000000 0.750000 875.099975585938 96.375)">Intersect Dense </text>
  <text x="0.946188986301422" y="36.8967208862305" dx="0" dy="0" font-family="Arial" font-size="8.99999973177911pt" fill="#000000" style="text-anchor:start" transform="matrix(0.750000 0.000000 0.000000 0.750000 875.099975585938 96.375)">Blocks and Road </text>
  <text x="30.4061889648438" y="50.696720123291" dx="0" dy="0" font-family="Arial" font-size="8.99999973177911pt" fill="#000000" style="text-anchor:start" transform="matrix(0.750000 0.000000 0.000000 0.750000 875.099975585938 96.375)">Buffer</text>
  <path d="M883.603881835938,96.375 L940.996032714844,96.375 L940.995971679688,96.375 C945.692565917969,96.3749923706055 949.499938964844,100.182327270508 949.499938964844,104.878929138184 C949.499938964844,104.878929138184 949.499938964844,104.878936767578 949.499938964844,104.878936767578 L949.499938964844,104.878936767578 L949.499938964844,135.271057128906 L949.499938964844,135.271057128906 C949.499938964844,139.967651367188 945.692626953125,143.774993896484 940.996032714844,143.774993896484 L940.996032714844,143.774993896484 L883.603881835938,143.774993896484 L883.603881835938,143.774993896484 C878.907287597656,143.774993896484 875.099975585938,139.967651367188 875.099975585938,135.271057128906 L875.099975585938,104.878936767578 L875.099914550781,104.878936767578 C875.099914550781,100.182342529297 878.907287597656,96.375 883.603881835938,96.3749923706055 " stroke="none" fill="none" stroke-width="0.75" stroke-opacity="0" />
  <path d="M1044.89990234375,120.074989318848 C1044.89990234375,133.164138793945 1028.24487304688,143.774993896484 1007.70001220703,143.774993896484 C987.154968261719,143.774993896484 970.5,133.164154052734 970.499938964844,120.075012207031 L970.499938964844,120.075012207031 C970.499938964844,106.985862731934 987.154968261719,96.3750076293945 1007.69995117188,96.375 C1028.24487304688,96.3749847412109 1044.89990234375,106.985832214355 1044.89990234375,120.074996948242 C1044.89990234375,120.074996948242 1044.89990234375,120.074996948242 1044.89990234375,120.074996948242 " stroke="none" fill="#83CC7C" fill-rule="evenodd" stroke-width="0" fill-opacity="1" />
  <text x="3.28952217102051" y="29.9967193603516" dx="0" dy="0" font-family="Arial" font-size="8.99999973177911pt" fill="#000000" style="text-anchor:start" transform="matrix(0.750000 0.000000 0.000000 0.750000 970.5 96.375)">Utah Co. Dense </text>
  <text x="16.9628562927246" y="43.7967185974121" dx="0" dy="0" font-family="Arial" font-size="8.99999973177911pt" fill="#000000" style="text-anchor:start" transform="matrix(0.750000 0.000000 0.000000 0.750000 970.5 96.375)">Near Road</text>
  <path d="M1044.89990234375,120.074989318848 C1044.89990234375,133.164138793945 1028.24487304688,143.774993896484 1007.70001220703,143.774993896484 C987.154968261719,143.774993896484 970.5,133.164154052734 970.499938964844,120.075012207031 L970.499938964844,120.075012207031 C970.499938964844,106.985862731934 987.154968261719,96.3750076293945 1007.69995117188,96.375 C1028.24487304688,96.3749847412109 1044.89990234375,106.985832214355 1044.89990234375,120.074996948242 C1044.89990234375,120.074996948242 1044.89990234375,120.074996948242 1044.89990234375,120.074996948242 " stroke="none" fill="none" stroke-width="0.75" stroke-opacity="0" />
  <path d="M1074.40393066406,96.375 L1131.79602050781,96.375 L1131.79602050781,96.375 C1136.49255371094,96.3749923706055 1140.29992675781,100.182327270508 1140.29992675781,104.878929138184 C1140.29992675781,104.878929138184 1140.29992675781,104.878936767578 1140.29992675781,104.878936767578 L1140.29992675781,104.878936767578 L1140.29992675781,135.271057128906 L1140.29992675781,135.271057128906 C1140.29992675781,139.967651367188 1136.49267578125,143.774993896484 1131.79602050781,143.774993896484 L1131.79602050781,143.774993896484 L1074.40393066406,143.774993896484 L1074.40393066406,143.774993896484 C1069.70727539063,143.774993896484 1065.90002441406,139.967651367188 1065.90002441406,135.271057128906 L1065.90002441406,104.878936767578 L1065.89990234375,104.878936767578 C1065.89990234375,100.182342529297 1069.70727539063,96.375 1074.40393066406,96.3749923706055 " stroke="none" fill="#F2E279" fill-rule="evenodd" stroke-width="0" fill-opacity="1" />
  <text x="7.95952224731445" y="29.9967193603516" dx="0" dy="0" font-family="Arial" font-size="8.99999973177911pt" fill="#000000" style="text-anchor:start" transform="matrix(0.750000 0.000000 0.000000 0.750000 1065.90002441406 96.375)">Erase Existing </text>
  <text x="30.4061889648438" y="43.7967185974121" dx="0" dy="0" font-family="Arial" font-size="8.99999973177911pt" fill="#000000" style="text-anchor:start" transform="matrix(0.750000 0.000000 0.000000 0.750000 1065.90002441406 96.375)">Buffer</text>
  <path d="M1074.40393066406,96.375 L1131.79602050781,96.375 L1131.79602050781,96.375 C1136.49255371094,96.3749923706055 1140.29992675781,100.182327270508 1140.29992675781,104.878929138184 C1140.29992675781,104.878929138184 1140.29992675781,104.878936767578 1140.29992675781,104.878936767578 L1140.29992675781,104.878936767578 L1140.29992675781,135.271057128906 L1140.29992675781,135.271057128906 C1140.29992675781,139.967651367188 1136.49267578125,143.774993896484 1131.79602050781,143.774993896484 L1131.79602050781,143.774993896484 L1074.40393066406,143.774993896484 L1074.40393066406,143.774993896484 C1069.70727539063,143.774993896484 1065.90002441406,139.967651367188 1065.90002441406,135.271057128906 L1065.90002441406,104.878936767578 L1065.89990234375,104.878936767578 C1065.89990234375,100.182342529297 1069.70727539063,96.375 1074.40393066406,96.3749923706055 " stroke="none" fill="none" stroke-width="0.75" stroke-opacity="0" />
  <path d="M1235.69982910156,120.074989318848 C1235.69982910156,133.164138793945 1219.04479980469,143.774993896484 1198.49987792969,143.774993896484 C1177.95483398438,143.774993896484 1161.29992675781,133.164154052734 1161.2998046875,120.075012207031 L1161.2998046875,120.075012207031 C1161.2998046875,106.985862731934 1177.95483398438,96.3750076293945 1198.49987792969,96.375 C1219.04479980469,96.3749847412109 1235.69982910156,106.985832214355 1235.69982910156,120.074996948242 C1235.69982910156,120.074996948242 1235.69982910156,120.074996948242 1235.69982910156,120.074996948242 " stroke="none" fill="#83CC7C" fill-rule="evenodd" stroke-width="0" fill-opacity="1" />
  <text x="11.9528551101685" y="29.9967193603516" dx="0" dy="0" font-family="Arial" font-size="8.99999973177911pt" fill="#000000" style="text-anchor:start" transform="matrix(0.750000 0.000000 0.000000 0.750000 1161.29992675781 96.375)">Potential Not </text>
  <text x="10.2961883544922" y="43.7967185974121" dx="0" dy="0" font-family="Arial" font-size="8.99999973177911pt" fill="#000000" style="text-anchor:start" transform="matrix(0.750000 0.000000 0.000000 0.750000 1161.29992675781 96.375)">Near Existing</text>
  <path d="M1235.69982910156,120.074989318848 C1235.69982910156,133.164138793945 1219.04479980469,143.774993896484 1198.49987792969,143.774993896484 C1177.95483398438,143.774993896484 1161.29992675781,133.164154052734 1161.2998046875,120.075012207031 L1161.2998046875,120.075012207031 C1161.2998046875,106.985862731934 1177.95483398438,96.3750076293945 1198.49987792969,96.375 C1219.04479980469,96.3749847412109 1235.69982910156,106.985832214355 1235.69982910156,120.074996948242 C1235.69982910156,120.074996948242 1235.69982910156,120.074996948242 1235.69982910156,120.074996948242 " stroke="none" fill="none" stroke-width="0.75" stroke-opacity="0" />
  <path d="M883.603881835938,208.199996948242 L940.996032714844,208.199996948242 L940.995971679688,208.199996948242 C945.692565917969,208.199981689453 949.499938964844,212.00732421875 949.499938964844,216.703918457031 C949.499938964844,216.703918457031 949.499938964844,216.70393371582 949.499938964844,216.70393371582 L949.499938964844,216.70393371582 L949.499938964844,247.096054077148 L949.499938964844,247.096054077148 C949.499938964844,251.79264831543 945.692626953125,255.599990844727 940.996032714844,255.599990844727 L940.996032714844,255.599990844727 L883.603881835938,255.599990844727 L883.603881835938,255.599990844727 C878.907287597656,255.599990844727 875.099975585938,251.79264831543 875.099975585938,247.096054077148 L875.099975585938,216.70393371582 L875.099914550781,216.70393371582 C875.099914550781,212.007339477539 878.907287597656,208.199996948242 883.603881835938,208.199981689453 " stroke="none" fill="#F2E279" fill-rule="evenodd" stroke-width="0" fill-opacity="1" />
  <text x="7.73285579681396" y="29.9967193603516" dx="0" dy="0" font-family="Arial" font-size="8.99999973177911pt" fill="#000000" style="text-anchor:start" transform="matrix(0.750000 0.000000 0.000000 0.750000 875.099975585938 208.199996948242)">Buffer Existing </text>
  <text x="4.29218912124634" y="43.7967185974121" dx="0" dy="0" font-family="Arial" font-size="8.99999973177911pt" fill="#000000" style="text-anchor:start" transform="matrix(0.750000 0.000000 0.000000 0.750000 875.099975585938 208.199996948242)">Locations (2 mi)</text>
  <path d="M883.603881835938,208.199996948242 L940.996032714844,208.199996948242 L940.995971679688,208.199996948242 C945.692565917969,208.199981689453 949.499938964844,212.00732421875 949.499938964844,216.703918457031 C949.499938964844,216.703918457031 949.499938964844,216.70393371582 949.499938964844,216.70393371582 L949.499938964844,216.70393371582 L949.499938964844,247.096054077148 L949.499938964844,247.096054077148 C949.499938964844,251.79264831543 945.692626953125,255.599990844727 940.996032714844,255.599990844727 L940.996032714844,255.599990844727 L883.603881835938,255.599990844727 L883.603881835938,255.599990844727 C878.907287597656,255.599990844727 875.099975585938,251.79264831543 875.099975585938,247.096054077148 L875.099975585938,216.70393371582 L875.099914550781,216.70393371582 C875.099914550781,212.007339477539 878.907287597656,208.199996948242 883.603881835938,208.199981689453 " stroke="none" fill="none" stroke-width="0.75" stroke-opacity="0" />
  <path d="M1044.89990234375,231.899978637695 C1044.89990234375,244.989135742188 1028.24487304688,255.599990844727 1007.70001220703,255.599990844727 C987.154968261719,255.599990844727 970.5,244.989151000977 970.499938964844,231.900009155273 L970.499938964844,231.900009155273 C970.499938964844,218.810852050781 987.154968261719,208.199996948242 1007.69995117188,208.199996948242 C1028.24487304688,208.199981689453 1044.89990234375,218.810821533203 1044.89990234375,231.899993896484 C1044.89990234375,231.899993896484 1044.89990234375,231.899993896484 1044.89990234375,231.899993896484 " stroke="none" fill="#83CC7C" fill-rule="evenodd" stroke-width="0" fill-opacity="1" />
  <text x="7.73285579681396" y="36.8967208862305" dx="0" dy="0" font-family="Arial" font-size="8.99999973177911pt" fill="#000000" style="text-anchor:start" transform="matrix(0.750000 0.000000 0.000000 0.750000 970.5 208.199996948242)">Existing Buffer</text>
  <path d="M1044.89990234375,231.899978637695 C1044.89990234375,244.989135742188 1028.24487304688,255.599990844727 1007.70001220703,255.599990844727 C987.154968261719,255.599990844727 970.5,244.989151000977 970.499938964844,231.900009155273 L970.499938964844,231.900009155273 C970.499938964844,218.810852050781 987.154968261719,208.199996948242 1007.69995117188,208.199996948242 C1028.24487304688,208.199981689453 1044.89990234375,218.810821533203 1044.89990234375,231.899993896484 C1044.89990234375,231.899993896484 1044.89990234375,231.899993896484 1044.89990234375,231.899993896484 " stroke="none" fill="none" stroke-width="0.75" stroke-opacity="0" />
  <path d="M854.099914550781,231.899978637695 C854.099914550781,244.989135742188 837.444885253906,255.599990844727 816.899963378906,255.599990844727 C796.354919433594,255.599990844727 779.699951171875,244.989151000977 779.699890136719,231.900009155273 L779.699890136719,231.900009155273 C779.699890136719,218.810852050781 796.354919433594,208.199996948242 816.89990234375,208.199996948242 C837.444885253906,208.199981689453 854.099914550781,218.810821533203 854.099914550781,231.899993896484 C854.099914550781,231.899993896484 854.099914550781,231.899993896484 854.099914550781,231.899993896484 " stroke="none" fill="#70AECC" fill-rule="evenodd" stroke-width="0" fill-opacity="1" />
  <text x="25.2995223999023" y="29.9967193603516" dx="0" dy="0" font-family="Arial" font-size="8.99999973177911pt" fill="#000000" style="text-anchor:start" transform="matrix(0.750000 0.000000 0.000000 0.750000 779.699951171875 208.199996948242)">Existing </text>
  <text x="21.2888565063477" y="43.7967185974121" dx="0" dy="0" font-family="Arial" font-size="8.99999973177911pt" fill="#000000" style="text-anchor:start" transform="matrix(0.750000 0.000000 0.000000 0.750000 779.699951171875 208.199996948242)">Locations</text>
  <path d="M854.099914550781,231.899978637695 C854.099914550781,244.989135742188 837.444885253906,255.599990844727 816.899963378906,255.599990844727 C796.354919433594,255.599990844727 779.699951171875,244.989151000977 779.699890136719,231.900009155273 L779.699890136719,231.900009155273 C779.699890136719,218.810852050781 796.354919433594,208.199996948242 816.89990234375,208.199996948242 C837.444885253906,208.199981689453 854.099914550781,218.810821533203 854.099914550781,231.899993896484 C854.099914550781,231.899993896484 854.099914550781,231.899993896484 854.099914550781,231.899993896484 " stroke="none" fill="none" stroke-width="0.75" stroke-opacity="0" />
  <path d="M502.003936767578,48.4500007629395 L559.396057128906,48.4500007629395 L559.39599609375,48.4500007629395 C564.092590332031,48.4499931335449 567.899963378906,52.2573280334473 567.899963378906,56.9539337158203 C567.899963378906,56.9539337158203 567.899963378906,56.9539375305176 567.899963378906,56.9539375305176 L567.899963378906,56.9539375305176 L567.899963378906,87.346061706543 L567.899963378906,87.3460540771484 C567.899963378906,92.0426483154297 564.092651367188,95.8499908447266 559.396057128906,95.8499984741211 L559.396057128906,95.8499984741211 L502.003936767578,95.8499984741211 L502.003936767578,95.8499984741211 C497.307342529297,95.8499984741211 493.5,92.0426559448242 493.5,87.346061706543 L493.5,56.9539375305176 L493.499969482422,56.9539413452148 C493.499969482422,52.2573471069336 497.307312011719,48.4500007629395 502.00390625,48.4499969482422 " stroke="none" fill="#F2E279" fill-rule="evenodd" stroke-width="0" fill-opacity="1" />
  <text x="12.9595222473145" y="29.9967193603516" dx="0" dy="0" font-family="Arial" font-size="8.99999973177911pt" fill="#000000" style="text-anchor:start" transform="matrix(0.750000 0.000000 0.000000 0.750000 493.5 48.4500007629395)">Select Major </text>
  <text x="28.6328563690186" y="43.7967185974121" dx="0" dy="0" font-family="Arial" font-size="8.99999973177911pt" fill="#000000" style="text-anchor:start" transform="matrix(0.750000 0.000000 0.000000 0.750000 493.5 48.4500007629395)">Roads</text>
  <path d="M502.003936767578,48.4500007629395 L559.396057128906,48.4500007629395 L559.39599609375,48.4500007629395 C564.092590332031,48.4499931335449 567.899963378906,52.2573280334473 567.899963378906,56.9539337158203 C567.899963378906,56.9539337158203 567.899963378906,56.9539375305176 567.899963378906,56.9539375305176 L567.899963378906,56.9539375305176 L567.899963378906,87.346061706543 L567.899963378906,87.3460540771484 C567.899963378906,92.0426483154297 564.092651367188,95.8499908447266 559.396057128906,95.8499984741211 L559.396057128906,95.8499984741211 L502.003936767578,95.8499984741211 L502.003936767578,95.8499984741211 C497.307342529297,95.8499984741211 493.5,92.0426559448242 493.5,87.346061706543 L493.5,56.9539375305176 L493.499969482422,56.9539413452148 C493.499969482422,52.2573471069336 497.307312011719,48.4500007629395 502.00390625,48.4499969482422 " stroke="none" fill="none" stroke-width="0.75" stroke-opacity="0" />
  <path d="M663.299926757813,72.1499938964844 C663.299926757813,85.2391357421875 646.644897460938,95.8499908447266 626.099975585938,95.8499984741211 C605.554931640625,95.8499984741211 588.899963378906,85.2391586303711 588.89990234375,72.1500091552734 L588.89990234375,72.150016784668 C588.89990234375,59.0608673095703 605.554931640625,48.450008392334 626.099914550781,48.4500007629395 C646.644897460938,48.4499893188477 663.299926757813,59.0608329772949 663.299926757813,72.1499938964844 C663.299926757813,72.1499938964844 663.299926757813,72.1499938964844 663.299926757813,72.1499938964844 " stroke="none" fill="#83CC7C" fill-rule="evenodd" stroke-width="0" fill-opacity="1" />
  <text x="5.6295223236084" y="29.9967193603516" dx="0" dy="0" font-family="Arial" font-size="8.99999973177911pt" fill="#000000" style="text-anchor:start" transform="matrix(0.750000 0.000000 0.000000 0.750000 588.899963378906 48.4500007629395)">Utah Co. Major </text>
  <text x="28.6328563690186" y="43.7967185974121" dx="0" dy="0" font-family="Arial" font-size="8.99999973177911pt" fill="#000000" style="text-anchor:start" transform="matrix(0.750000 0.000000 0.000000 0.750000 588.899963378906 48.4500007629395)">Roads</text>
  <path d="M663.299926757813,72.1499938964844 C663.299926757813,85.2391357421875 646.644897460938,95.8499908447266 626.099975585938,95.8499984741211 C605.554931640625,95.8499984741211 588.899963378906,85.2391586303711 588.89990234375,72.1500091552734 L588.89990234375,72.150016784668 C588.89990234375,59.0608673095703 605.554931640625,48.450008392334 626.099914550781,48.4500007629395 C646.644897460938,48.4499893188477 663.299926757813,59.0608329772949 663.299926757813,72.1499938964844 C663.299926757813,72.1499938964844 663.299926757813,72.1499938964844 663.299926757813,72.1499938964844 " stroke="none" fill="none" stroke-width="0.75" stroke-opacity="0" />
  <path d="M502.003936767578,144.300003051758 L559.396057128906,144.300003051758 L559.39599609375,144.300003051758 C564.092590332031,144.299987792969 567.899963378906,148.107330322266 567.899963378906,152.803924560547 C567.899963378906,152.803924560547 567.899963378906,152.803939819336 567.899963378906,152.803939819336 L567.899963378906,152.803939819336 L567.899963378906,183.196060180664 L567.899963378906,183.196060180664 C567.899963378906,187.892654418945 564.092651367188,191.699996948242 559.396057128906,191.699996948242 L559.396057128906,191.699996948242 L502.003936767578,191.699996948242 L502.003936767578,191.699996948242 C497.307342529297,191.699996948242 493.5,187.892654418945 493.5,183.196060180664 L493.5,152.803939819336 L493.499969482422,152.803939819336 C493.499969482422,148.107345581055 497.307312011719,144.300003051758 502.00390625,144.299987792969 " stroke="none" fill="#F2E279" fill-rule="evenodd" stroke-width="0" fill-opacity="1" />
  <text x="6.28952264785767" y="36.8967208862305" dx="0" dy="0" font-family="Arial" font-size="8.99999973177911pt" fill="#000000" style="text-anchor:start" transform="matrix(0.750000 0.000000 0.000000 0.750000 493.5 144.300003051758)">Calculate Field</text>
  <path d="M502.003936767578,144.300003051758 L559.396057128906,144.300003051758 L559.39599609375,144.300003051758 C564.092590332031,144.299987792969 567.899963378906,148.107330322266 567.899963378906,152.803924560547 C567.899963378906,152.803924560547 567.899963378906,152.803939819336 567.899963378906,152.803939819336 L567.899963378906,152.803939819336 L567.899963378906,183.196060180664 L567.899963378906,183.196060180664 C567.899963378906,187.892654418945 564.092651367188,191.699996948242 559.396057128906,191.699996948242 L559.396057128906,191.699996948242 L502.003936767578,191.699996948242 L502.003936767578,191.699996948242 C497.307342529297,191.699996948242 493.5,187.892654418945 493.5,183.196060180664 L493.5,152.803939819336 L493.499969482422,152.803939819336 C493.499969482422,148.107345581055 497.307312011719,144.300003051758 502.00390625,144.299987792969 " stroke="none" fill="none" stroke-width="0.75" stroke-opacity="0" />
  <path d="M663.299926757813,167.999984741211 C663.299926757813,181.089141845703 646.644897460938,191.699996948242 626.099975585938,191.699996948242 C605.554931640625,191.699996948242 588.899963378906,181.089157104492 588.89990234375,168.000015258789 L588.89990234375,168.000015258789 C588.89990234375,154.910858154297 605.554931640625,144.300003051758 626.099914550781,144.300003051758 C646.644897460938,144.299987792969 663.299926757813,154.910827636719 663.299926757813,168 C663.299926757813,168 663.299926757813,168 663.299926757813,168 " stroke="none" fill="#83CC7C" fill-rule="evenodd" stroke-width="0" fill-opacity="1" />
  <text x="0.28952232003212" y="23.0967178344727" dx="0" dy="0" font-family="Arial" font-size="8.99999973177911pt" fill="#000000" style="text-anchor:start" transform="matrix(0.750000 0.000000 0.000000 0.750000 588.899963378906 144.300003051758)">Utah Co. Census </text>
  <text x="3.95618915557861" y="36.8967208862305" dx="0" dy="0" font-family="Arial" font-size="8.99999973177911pt" fill="#000000" style="text-anchor:start" transform="matrix(0.750000 0.000000 0.000000 0.750000 588.899963378906 144.300003051758)">Blocks with Pop </text>
  <text x="25.9695224761963" y="50.696720123291" dx="0" dy="0" font-family="Arial" font-size="8.99999973177911pt" fill="#000000" style="text-anchor:start" transform="matrix(0.750000 0.000000 0.000000 0.750000 588.899963378906 144.300003051758)">Density</text>
  <path d="M663.299926757813,167.999984741211 C663.299926757813,181.089141845703 646.644897460938,191.699996948242 626.099975585938,191.699996948242 C605.554931640625,191.699996948242 588.899963378906,181.089157104492 588.89990234375,168.000015258789 L588.89990234375,168.000015258789 C588.89990234375,154.910858154297 605.554931640625,144.300003051758 626.099914550781,144.300003051758 C646.644897460938,144.299987792969 663.299926757813,154.910827636719 663.299926757813,168 C663.299926757813,168 663.299926757813,168 663.299926757813,168 " stroke="none" fill="none" stroke-width="0.75" stroke-opacity="0" />
</svg>